# File produced by Open Asset Import Library (http://www.assimp.sf.net)
# (assimp v3.0.1262)

mtllib door_way.dae.obj.mtl

# 276 vertex positions
v  1.30474 0 0
v  2 0 0
v  1.30474 0.121719 0
v  1.30474 0.121719 0
v  2 0 0
v  2 0.121719 0
v  1.30474 0.121719 0
v  2 0.121719 0
v  1.3522 0.196623 0.025697
v  1.3522 0.196623 0.025697
v  2 0.121719 0
v  2 0.196623 0.025697
v  1.30474 1.04107 0
v  1.30474 0.303238 0
v  2 1.04107 0
v  2 1.04107 0
v  1.30474 0.303238 0
v  2 0.303238 0
v  2 0.303238 0.132542
v  2 0.303238 0
v  1.56346 0.303238 0.132542
v  1.56346 0.303238 0.132542
v  2 0.303238 0
v  1.30474 0.303238 0
v  1.56346 0.303238 0.132542
v  1.56346 0.273066 0.132542
v  2 0.303238 0.132542
v  2 0.303238 0.132542
v  1.56346 0.273066 0.132542
v  2 0.273066 0.132542
v  2 3.70371 0
v  2 3.70371 0.085459
v  -2 3.70371 0
v  -2 3.70371 0
v  2 3.70371 0.085459
v  -2 3.70371 0.085459
v  2 3.70371 0.085459
v  2 3.74513 0.084883
v  -2 3.70371 0.085459
v  -2 3.70371 0.085459
v  2 3.74513 0.084883
v  -2 3.74513 0.084883
v  2 3.89568 0.20112
v  2 4 0.20112
v  -2 3.89568 0.20112
v  -2 3.89568 0.20112
v  2 4 0.20112
v  -2 4 0.20112
v  2 3.74513 0.084883
v  2 3.8035 0.098588
v  -2 3.74513 0.084883
v  -2 3.74513 0.084883
v  2 3.8035 0.098588
v  -2 3.8035 0.098588
v  2 3.87499 0.146033
v  2 3.89568 0.20112
v  -2 3.87499 0.146033
v  -2 3.87499 0.146033
v  2 3.89568 0.20112
v  -2 3.89568 0.20112
v  2 3.8035 0.098588
v  2 3.87499 0.146033
v  -2 3.8035 0.098588
v  -2 3.8035 0.098588
v  2 3.87499 0.146033
v  -2 3.87499 0.146033
v  2 1.16061 0.075829
v  2 1.16061 0
v  1.56346 1.16061 0.075829
v  1.56346 1.16061 0.075829
v  2 1.16061 0
v  1.30474 1.16061 0
v  1.56346 1.13917 0.075829
v  2 1.13917 0.075829
v  1.56346 1.16061 0.075829
v  1.56346 1.16061 0.075829
v  2 1.13917 0.075829
v  2 1.16061 0.075829
v  1 3 0
v  2 3.70371 0
v  -1 3 0
v  -1 3 0
v  2 3.70371 0
v  -2 3.70371 0
v  1.43818 1.1231 0.038784
v  2 1.1231 0.038784
v  1.56346 1.13917 0.075829
v  1.56346 1.13917 0.075829
v  2 1.1231 0.038784
v  2 1.13917 0.075829
v  1.30474 1.04107 0
v  2 1.04107 0
v  1.34713 1.08907 0.012391
v  1.34713 1.08907 0.012391
v  2 1.04107 0
v  2 1.08907 0.012391
v  2 1.1231 0.038784
v  1.43818 1.1231 0.038784
v  2 1.08907 0.012391
v  2 1.08907 0.012391
v  1.43818 1.1231 0.038784
v  1.34713 1.08907 0.012391
v  1.46083 0.25371 0.080029
v  2 0.25371 0.080029
v  1.56346 0.273066 0.132542
v  1.56346 0.273066 0.132542
v  2 0.25371 0.080029
v  2 0.273066 0.132542
v  2 0.25371 0.080029
v  1.46083 0.25371 0.080029
v  2 0.196623 0.025697
v  2 0.196623 0.025697
v  1.46083 0.25371 0.080029
v  1.3522 0.196623 0.025697
v  -2 1.16061 0.075829
v  -1.56346 1.16061 0.075829
v  -2 1.16061 0
v  -2 1.16061 0
v  -1.56346 1.16061 0.075829
v  -1.30474 1.16061 0
v  -2 1.13917 0.075829
v  -1.56346 1.13917 0.075829
v  -2 1.16061 0.075829
v  -2 1.16061 0.075829
v  -1.56346 1.13917 0.075829
v  -1.56346 1.16061 0.075829
v  -2 1.13917 0.075829
v  -2 1.1231 0.038784
v  -1.56346 1.13917 0.075829
v  -1.56346 1.13917 0.075829
v  -2 1.1231 0.038784
v  -1.43597 1.1231 0.038784
v  -1.34713 1.08907 0.012391
v  -1.43597 1.1231 0.038784
v  -2 1.08907 0.012391
v  -2 1.08907 0.012391
v  -1.43597 1.1231 0.038784
v  -2 1.1231 0.038784
v  -1.30474 1.04107 0
v  -1.34713 1.08907 0.012391
v  -2 1.04107 0
v  -2 1.04107 0
v  -1.34713 1.08907 0.012391
v  -2 1.08907 0.012391
v  -2 1.04107 0
v  -2 0.303238 0
v  -1.30474 1.04107 0
v  -1.30474 1.04107 0
v  -2 0.303238 0
v  -1.30474 0.303238 0
v  -1.30474 0.303238 0
v  -2 0.303238 0
v  -1.56346 0.303238 0.132542
v  -1.56346 0.303238 0.132542
v  -2 0.303238 0
v  -2 0.303238 0.132542
v  -2 0.303238 0.132542
v  -2 0.273066 0.132542
v  -1.56346 0.303238 0.132542
v  -1.56346 0.303238 0.132542
v  -2 0.273066 0.132542
v  -1.56346 0.273066 0.132542
v  -2 0.273066 0.132542
v  -2 0.25371 0.080029
v  -1.56346 0.273066 0.132542
v  -1.56346 0.273066 0.132542
v  -2 0.25371 0.080029
v  -1.46083 0.25371 0.080029
v  -1.35442 0.196623 0.025697
v  -1.46083 0.25371 0.080029
v  -2 0.196623 0.025697
v  -2 0.196623 0.025697
v  -1.46083 0.25371 0.080029
v  -2 0.25371 0.080029
v  -1.30474 0.121719 0
v  -1.35442 0.196623 0.025697
v  -2 0.121719 0
v  -2 0.121719 0
v  -1.35442 0.196623 0.025697
v  -2 0.196623 0.025697
v  -2 0 0
v  -1.30474 0 0
v  -2 0.121719 0
v  -2 0.121719 0
v  -1.30474 0 0
v  -1.30474 0.121719 0
v  -2 3.70371 0
v  -2 1.16061 0
v  -1 3 0
v  -1 3 0
v  -2 1.16061 0
v  -1.30474 1.16061 0
v  2 3.70371 0
v  1 3 0
v  2 1.16061 0
v  2 1.16061 0
v  1 3 0
v  1.30474 1.16061 0
v  -1.56346 0.273066 0.132542
v  -1.46083 0.25371 0.080029
v  -1.56346 0.303238 0.132542
v  -1.56346 0.303238 0.132542
v  -1.46083 0.25371 0.080029
v  -1.30474 0.303238 0
v  -1.46083 0.25371 0.080029
v  -1.35442 0.196623 0.025697
v  -1.30474 0.303238 0
v  -1.35442 0.196623 0.025697
v  -1.30474 0.121719 0
v  -1.30474 0.303238 0
v  1.56346 0.273066 0.132542
v  1.56346 0.303238 0.132542
v  1.46083 0.25371 0.080029
v  1.46083 0.25371 0.080029
v  1.56346 0.303238 0.132542
v  1.30474 0.303238 0
v  1.3522 0.196623 0.025697
v  1.46083 0.25371 0.080029
v  1.30474 0.303238 0
v  1.30474 0.121719 0
v  1.3522 0.196623 0.025697
v  1.30474 0.303238 0
v  1.30474 1.16061 0
v  1.43818 1.1231 0.038784
v  1.56346 1.16061 0.075829
v  1.56346 1.16061 0.075829
v  1.43818 1.1231 0.038784
v  1.56346 1.13917 0.075829
v  1.34713 1.08907 0.012391
v  1.43818 1.1231 0.038784
v  1.30474 1.16061 0
v  1.30474 1.04107 0
v  1.34713 1.08907 0.012391
v  1.30474 1.16061 0
v  -1.56346 1.13917 0.075829
v  -1.43597 1.1231 0.038784
v  -1.56346 1.16061 0.075829
v  -1.56346 1.16061 0.075829
v  -1.43597 1.1231 0.038784
v  -1.30474 1.16061 0
v  -1.43597 1.1231 0.038784
v  -1.34713 1.08907 0.012391
v  -1.30474 1.16061 0
v  -1.34713 1.08907 0.012391
v  -1.30474 1.04107 0
v  -1.30474 1.16061 0
v  -1 0 0
v  -1.30474 0.121719 0
v  -1.30474 0 0
v  1 3 0
v  1 0 0
v  1.30474 1.16061 0
v  1.30474 1.16061 0
v  1 0 0
v  1.30474 1.04107 0
v  -1 3 0
v  -1.30474 1.16061 0
v  -1 0 0
v  -1.30474 1.16061 0
v  -1.30474 1.04107 0
v  -1 0 0
v  -1 0 0
v  -1.30474 1.04107 0
v  -1.30474 0.303238 0
v  -1 0 0
v  -1.30474 0.303238 0
v  -1.30474 0.121719 0
v  1.30474 1.04107 0
v  1 0 0
v  1.30474 0.303238 0
v  1.30474 0.303238 0
v  1 0 0
v  1.30474 0.121719 0
v  1.30474 0.121719 0
v  1 0 0
v  1.30474 0 0

# 276 UV coordinates
vt 0.333739 0.504356 0
vt 0.38777 0.460427 0
vt 0.341465 0.513788 0
vt 0.341465 0.513788 0
vt 0.38777 0.460427 0
vt 0.395421 0.469917 0
vt 0.341465 0.513788 0
vt 0.395421 0.469917 0
vt 0.348344 0.517348 0
vt 0.348344 0.517348 0
vt 0.395421 0.469917 0
vt 0.400344 0.476104 0
vt 0.348344 0.603268 0
vt 0.348344 0.529916 0
vt 0.419049 0.603268 0
vt 0.419049 0.603268 0
vt 0.348344 0.529916 0
vt 0.419049 0.529916 0
vt 0.419049 0.516584 0
vt 0.419049 0.529916 0
vt 0.376128 0.516584 0
vt 0.376128 0.516584 0
vt 0.419049 0.529916 0
vt 0.348344 0.529916 0
vt 0.376128 0.516584 0
vt 0.375432 0.513538 0
vt 0.419049 0.516584 0
vt 0.419049 0.516584 0
vt 0.375432 0.513538 0
vt 0.419049 0.513538 0
vt 0.41337 0.903958 0
vt 0.41337 0.912499 0
vt 0.012873 0.903958 0
vt 0.012873 0.903958 0
vt 0.41337 0.912499 0
vt 0.012873 0.912499 0
vt 0.41337 0.912499 0
vt 0.41337 0.91662 0
vt 0.012873 0.912499 0
vt 0.012873 0.912499 0
vt 0.41337 0.91662 0
vt 0.012873 0.91662 0
vt 0.41337 0.937037 0
vt 0.41337 0.947473 0
vt 0.012873 0.937037 0
vt 0.012873 0.937037 0
vt 0.41337 0.947473 0
vt 0.012873 0.947473 0
vt 0.41337 0.91662 0
vt 0.41337 0.922598 0
vt 0.012873 0.91662 0
vt 0.012873 0.91662 0
vt 0.41337 0.922598 0
vt 0.012873 0.922598 0
vt 0.41337 0.931168 0
vt 0.41337 0.937037 0
vt 0.012873 0.931168 0
vt 0.012873 0.931168 0
vt 0.41337 0.937037 0
vt 0.012873 0.937037 0
vt 0.41337 0.922598 0
vt 0.41337 0.931168 0
vt 0.012873 0.922598 0
vt 0.012873 0.922598 0
vt 0.41337 0.931168 0
vt 0.012873 0.931168 0
vt 0.415137 0.635798 0
vt 0.412173 0.642796 0
vt 0.374981 0.618673 0
vt 0.374981 0.618673 0
vt 0.412173 0.642796 0
vt 0.348344 0.615057 0
vt 0.375464 0.61678 0
vt 0.415926 0.633798 0
vt 0.374981 0.618673 0
vt 0.374981 0.618673 0
vt 0.415926 0.633798 0
vt 0.415137 0.635798 0
vt 0.313315 0.833657 0
vt 0.41337 0.903958 0
vt 0.11298 0.833657 0
vt 0.11298 0.833657 0
vt 0.41337 0.903958 0
vt 0.012873 0.903958 0
vt 0.362724 0.61295 0
vt 0.419049 0.61311 0
vt 0.375464 0.61678 0
vt 0.375464 0.61678 0
vt 0.419049 0.61311 0
vt 0.419049 0.617147 0
vt 0.348344 0.603268 0
vt 0.419049 0.603268 0
vt 0.353618 0.608438 0
vt 0.353618 0.608438 0
vt 0.419049 0.603268 0
vt 0.419049 0.608813 0
vt 0.419049 0.61311 0
vt 0.362724 0.61295 0
vt 0.419049 0.608813 0
vt 0.419049 0.608813 0
vt 0.362724 0.61295 0
vt 0.353618 0.608438 0
vt 0.363753 0.516779 0
vt 0.40535 0.482134 0
vt 0.375432 0.513538 0
vt 0.375432 0.513538 0
vt 0.40535 0.482134 0
vt 0.408962 0.486381 0
vt 0.40535 0.482134 0
vt 0.363753 0.516779 0
vt 0.400344 0.476104 0
vt 0.400344 0.476104 0
vt 0.363753 0.516779 0
vt 0.348344 0.517348 0
vt 0.0105 0.637194 0
vt 0.050295 0.619237 0
vt 0.013574 0.644142 0
vt 0.013574 0.644142 0
vt 0.050295 0.619237 0
vt 0.076905 0.61537 0
vt 0.00968 0.635208 0
vt 0.04975 0.617236 0
vt 0.0105 0.637194 0
vt 0.0105 0.637194 0
vt 0.04975 0.617236 0
vt 0.050295 0.619237 0
vt 0.006117 0.616755 0
vt 0.006117 0.612718 0
vt 0.04975 0.617236 0
vt 0.04975 0.617236 0
vt 0.006117 0.612718 0
vt 0.062722 0.613379 0
vt 0.07162 0.608846 0
vt 0.062722 0.613379 0
vt 0.006117 0.608418 0
vt 0.006117 0.608418 0
vt 0.062722 0.613379 0
vt 0.006117 0.612718 0
vt 0.076905 0.603453 0
vt 0.07162 0.608846 0
vt 0.006117 0.603453 0
vt 0.006117 0.603453 0
vt 0.07162 0.608846 0
vt 0.006117 0.608418 0
vt 0.006117 0.603453 0
vt 0.006117 0.52984 0
vt 0.076905 0.603453 0
vt 0.076905 0.603453 0
vt 0.006117 0.52984 0
vt 0.076905 0.52984 0
vt 0.076905 0.52984 0
vt 0.006117 0.52984 0
vt 0.05022 0.516814 0
vt 0.05022 0.516814 0
vt 0.006117 0.52984 0
vt 0.006117 0.516814 0
vt 0.006117 0.516814 0
vt 0.006117 0.513146 0
vt 0.05022 0.516814 0
vt 0.05022 0.516814 0
vt 0.006117 0.513146 0
vt 0.050953 0.513146 0
vt 0.01786 0.486021 0
vt 0.021538 0.481832 0
vt 0.050953 0.513146 0
vt 0.050953 0.513146 0
vt 0.021538 0.481832 0
vt 0.062595 0.517105 0
vt 0.076905 0.517747 0
vt 0.062595 0.517105 0
vt 0.026635 0.475881 0
vt 0.026635 0.475881 0
vt 0.062595 0.517105 0
vt 0.021538 0.481832 0
vt 0.08494 0.514443 0
vt 0.076905 0.517747 0
vt 0.031648 0.469773 0
vt 0.031648 0.469773 0
vt 0.076905 0.517747 0
vt 0.026635 0.475881 0
vt 0.039439 0.460399 0
vt 0.092807 0.505131 0
vt 0.031648 0.469773 0
vt 0.031648 0.469773 0
vt 0.092807 0.505131 0
vt 0.08494 0.514443 0
vt 0.012873 0.903958 0
vt 0.012873 0.649259 0
vt 0.11298 0.833657 0
vt 0.11298 0.833657 0
vt 0.012873 0.649259 0
vt 0.082542 0.649285 0
vt 0.41337 0.903958 0
vt 0.313315 0.833657 0
vt 0.41337 0.649544 0
vt 0.41337 0.649544 0
vt 0.313315 0.833657 0
vt 0.34408 0.649461 0
vt 0.050953 0.513146 0
vt 0.062595 0.517105 0
vt 0.05022 0.516814 0
vt 0.05022 0.516814 0
vt 0.062595 0.517105 0
vt 0.076905 0.52984 0
vt 0.062595 0.517105 0
vt 0.076905 0.517747 0
vt 0.076905 0.52984 0
vt 0.076905 0.517747 0
vt 0.08494 0.514443 0
vt 0.076905 0.52984 0
vt 0.375432 0.513538 0
vt 0.376128 0.516584 0
vt 0.363753 0.516779 0
vt 0.363753 0.516779 0
vt 0.376128 0.516584 0
vt 0.348344 0.529916 0
vt 0.348344 0.517348 0
vt 0.363753 0.516779 0
vt 0.348344 0.529916 0
vt 0.341465 0.513788 0
vt 0.348344 0.517348 0
vt 0.348344 0.529916 0
vt 0.348344 0.615057 0
vt 0.362724 0.61295 0
vt 0.374981 0.618673 0
vt 0.374981 0.618673 0
vt 0.362724 0.61295 0
vt 0.375464 0.61678 0
vt 0.353618 0.608438 0
vt 0.362724 0.61295 0
vt 0.348344 0.615057 0
vt 0.348344 0.603268 0
vt 0.353618 0.608438 0
vt 0.348344 0.615057 0
vt 0.04975 0.617236 0
vt 0.062722 0.613379 0
vt 0.050295 0.619237 0
vt 0.050295 0.619237 0
vt 0.062722 0.613379 0
vt 0.076905 0.61537 0
vt 0.062722 0.613379 0
vt 0.07162 0.608846 0
vt 0.076905 0.61537 0
vt 0.07162 0.608846 0
vt 0.076905 0.603453 0
vt 0.076905 0.61537 0
vt 0.113065 0.533054 0
vt 0.082542 0.54524 0
vt 0.082542 0.533049 0
vt 0.313315 0.833657 0
vt 0.313709 0.53318 0
vt 0.34408 0.649461 0
vt 0.34408 0.649461 0
vt 0.313709 0.53318 0
vt 0.34408 0.637492 0
vt 0.11298 0.833657 0
vt 0.082542 0.649285 0
vt 0.113065 0.533054 0
vt 0.082542 0.649285 0
vt 0.082542 0.637315 0
vt 0.113065 0.533054 0
vt 0.113065 0.533054 0
vt 0.082542 0.637315 0
vt 0.082542 0.563418 0
vt 0.113065 0.533054 0
vt 0.082542 0.563418 0
vt 0.082542 0.54524 0
vt 0.34408 0.637492 0
vt 0.313709 0.53318 0
vt 0.34408 0.563592 0
vt 0.34408 0.563592 0
vt 0.313709 0.53318 0
vt 0.34408 0.545413 0
vt 0.34408 0.545413 0
vt 0.313709 0.53318 0
vt 0.34408 0.533222 0

# 276 vertex normals
vn 0 0 1
vn 0 0 1
vn 0 -0.164492 0.986378
vn 0 -0.164492 0.986378
vn 0 0 1
vn 0 -0.164492 0.986378
vn 0 -0.164492 0.986378
vn 0 -0.164492 0.986378
vn 0 -0.518917 0.854825
vn 0 -0.518917 0.854825
vn 0 -0.164492 0.986378
vn 0 -0.518917 0.854825
vn 0 -0.125995 0.992031
vn 0 0 1
vn 0 -0.125995 0.992031
vn 0 -0.125995 0.992031
vn 0 0 1
vn 0 0 1
vn 0 0.707107 0.707107
vn 0 1 0
vn -0.208459 0.457735 0.864305
vn -0.208459 0.457735 0.864305
vn 0 1 0
vn -0.437342 0.3203 0.840321
vn -0.208459 0.457735 0.864305
vn -0.234463 0.000499 0.972125
vn 0 0.707107 0.707107
vn 0 0.707107 0.707107
vn -0.234463 0.000499 0.972125
vn 0 0 1
vn 0 -1 0
vn 0 -1 0
vn 0 -1 0
vn 0 -1 0
vn 0 -1 0
vn 0 -1 0
vn 0 0.013902 0.999903
vn 0 -0.108147 0.994135
vn 0 0.013902 0.999903
vn 0 0.013902 0.999903
vn 0 -0.108147 0.994135
vn 0 -0.108147 0.994135
vn 0 0 1
vn 0 0 1
vn 0 0 1
vn 0 0 1
vn 0 0 1
vn 0 0 1
vn 0 -0.108147 0.994135
vn 0 -0.397021 0.91781
vn 0 -0.108147 0.994135
vn 0 -0.108147 0.994135
vn 0 -0.397021 0.91781
vn 0 -0.397021 0.91781
vn 0 -0.782544 0.622595
vn 0 -0.936168 0.351553
vn 0 -0.782544 0.622595
vn 0 -0.782544 0.622595
vn 0 -0.936168 0.351553
vn 0 -0.936168 0.351553
vn 0 -0.397021 0.91781
vn 0 -0.782544 0.622595
vn 0 -0.397021 0.91781
vn 0 -0.397021 0.91781
vn 0 -0.782544 0.622595
vn 0 -0.782544 0.622595
vn 0 0.707107 0.707107
vn 0 1 0
vn -0.127204 0.448546 0.884661
vn -0.127204 0.448546 0.884661
vn 0 1 0
vn -0.266144 0.314708 0.911113
vn -0.142324 -0.003283 0.989815
vn 0 0 1
vn -0.127204 0.448546 0.884661
vn -0.127204 0.448546 0.884661
vn 0 0 1
vn 0 0.707107 0.707107
vn 0 0 1
vn 0 0 1
vn 0 0 1
vn 0 0 1
vn 0 0 1
vn 0 0 1
vn 0 -0.789842 0.613311
vn 0 -0.789842 0.613311
vn 0 -0.917372 0.398031
vn 0 -0.917372 0.398031
vn 0 -0.789842 0.613311
vn 0 -0.917372 0.398031
vn 0 -0.125995 0.992031
vn 0 -0.125995 0.992031
vn 0 -0.440512 0.897747
vn 0 -0.440512 0.897747
vn 0 -0.125995 0.992031
vn 0 -0.440512 0.897747
vn 0 -0.789842 0.613311
vn 0 -0.789842 0.613311
vn 0 -0.440512 0.897747
vn 0 -0.440512 0.897747
vn 0 -0.789842 0.613311
vn 0 -0.440512 0.897747
vn 0 -0.835569 0.549386
vn 0 -0.835569 0.549386
vn 0 -0.938291 0.345847
vn 0 -0.938291 0.345847
vn 0 -0.835569 0.549386
vn 0 -0.938291 0.345847
vn 0 -0.835569 0.549386
vn 0 -0.835569 0.549386
vn 0 -0.518917 0.854825
vn 0 -0.518917 0.854825
vn 0 -0.835569 0.549386
vn 0 -0.518917 0.854825
vn 0 0.707107 0.707107
vn 0.126418 0.45317 0.882414
vn 0 1 0
vn 0 1 0
vn 0.126418 0.45317 0.882414
vn 0.26722 0.317442 0.909848
vn 0 0 1
vn 0.141815 0.003256 0.989888
vn 0 0.707107 0.707107
vn 0 0.707107 0.707107
vn 0.141815 0.003256 0.989888
vn 0.126418 0.45317 0.882414
vn 0 -0.917372 0.398032
vn 0 -0.789842 0.613311
vn 0 -0.917372 0.398032
vn 0 -0.917372 0.398032
vn 0 -0.789842 0.613311
vn 0 -0.789842 0.613311
vn 0 -0.440512 0.897747
vn 0 -0.789842 0.613311
vn 0 -0.440512 0.897747
vn 0 -0.440512 0.897747
vn 0 -0.789842 0.613311
vn 0 -0.789842 0.613311
vn 0 -0.125995 0.992031
vn 0 -0.440512 0.897747
vn 0 -0.125995 0.992031
vn 0 -0.125995 0.992031
vn 0 -0.440512 0.897747
vn 0 -0.440512 0.897747
vn 0 -0.125995 0.992031
vn 0 0 1
vn 0 -0.125995 0.992031
vn 0 -0.125995 0.992031
vn 0 0 1
vn 0 0 1
vn 0.433414 0.31714 0.843549
vn 0 1 0
vn 0.208459 0.457736 0.864305
vn 0.208459 0.457736 0.864305
vn 0 1 0
vn 0 0.707107 0.707107
vn 0 0.707107 0.707107
vn 0 0 1
vn 0.208459 0.457736 0.864305
vn 0.208459 0.457736 0.864305
vn 0 0 1
vn 0.234463 0.0005 0.972125
vn 0 -0.938291 0.345847
vn 0 -0.835569 0.549386
vn 0 -0.938291 0.345847
vn 0 -0.938291 0.345847
vn 0 -0.835569 0.549386
vn 0 -0.835569 0.549386
vn 0 -0.518917 0.854825
vn 0 -0.835569 0.549386
vn 0 -0.518917 0.854825
vn 0 -0.518917 0.854825
vn 0 -0.835569 0.549386
vn 0 -0.835569 0.549386
vn 0 -0.164492 0.986378
vn 0 -0.518917 0.854825
vn 0 -0.164492 0.986378
vn 0 -0.164492 0.986378
vn 0 -0.518917 0.854825
vn 0 -0.518917 0.854825
vn 0 0 1
vn 0 0 1
vn 0 -0.164492 0.986378
vn 0 -0.164492 0.986378
vn 0 0 1
vn 0 -0.164492 0.986378
vn 0 0 1
vn 0 0 1
vn 0 0 1
vn 0 0 1
vn 0 0 1
vn 0 0 1
vn 0 0 1
vn 0 0 1
vn 0 0 1
vn 0 0 1
vn 0 0 1
vn 0 0 1
vn 0.234463 0.0005 0.972125
vn 0.455772 0.001601 0.890095
vn 0.208459 0.457736 0.864305
vn 0.208459 0.457736 0.864305
vn 0.455772 0.001601 0.890095
vn 0.433414 0.31714 0.843549
vn 0.455772 0.001601 0.890095
vn 0.45758 0.001114 0.889168
vn 0.433414 0.31714 0.843549
vn 0.45758 0.001114 0.889168
vn 0.459469 0 0.888194
vn 0.433414 0.31714 0.843549
vn -0.234463 0.000499 0.972125
vn -0.208459 0.457735 0.864305
vn -0.454373 0.00712 0.890783
vn -0.454373 0.00712 0.890783
vn -0.208459 0.457735 0.864305
vn -0.437342 0.3203 0.840321
vn -0.464551 0.006635 0.885522
vn -0.454373 0.00712 0.890783
vn -0.437342 0.3203 0.840321
vn -0.47613 0 0.879375
vn -0.464551 0.006635 0.885522
vn -0.437342 0.3203 0.840321
vn -0.266144 0.314708 0.911113
vn -0.280281 -0.002671 0.959914
vn -0.127204 0.448546 0.884661
vn -0.127204 0.448546 0.884661
vn -0.280281 -0.002671 0.959914
vn -0.142324 -0.003283 0.989815
vn -0.279708 0.000578 0.960085
vn -0.280281 -0.002671 0.959914
vn -0.266144 0.314708 0.911113
vn -0.280609 0 0.959822
vn -0.279708 0.000578 0.960085
vn -0.266144 0.314708 0.911113
vn 0.141815 0.003256 0.989888
vn 0.282387 0.00213 0.959298
vn 0.126418 0.45317 0.882414
vn 0.126418 0.45317 0.882414
vn 0.282387 0.00213 0.959298
vn 0.26722 0.317442 0.909848
vn 0.282387 0.00213 0.959298
vn 0.282309 -0.001093 0.959323
vn 0.26722 0.317442 0.909848
vn 0.282309 -0.001093 0.959323
vn 0.280609 0 0.959822
vn 0.26722 0.317442 0.909848
vn 0 0 1
vn 0 0 1
vn 0 0 1
vn 0 0 1
vn 0 0 1
vn 0 0 1
vn 0 0 1
vn 0 0 1
vn 0 0 1
vn 0 0 1
vn 0 0 1
vn 0 0 1
vn 0 0 1
vn 0 0 1
vn 0 0 1
vn 0 0 1
vn 0 0 1
vn 0 0 1
vn 0 0 1
vn 0 0 1
vn 0 0 1
vn 0 0 1
vn 0 0 1
vn 0 0 1
vn 0 0 1
vn 0 0 1
vn 0 0 1
vn 0 0 1
vn 0 0 1
vn 0 0 1

# Mesh 'mansionbase_doorway' with 92 faces
g mansionbase_doorway
usemtl mansionbase_material
f  1/1/1 2/2/2 3/3/3
f  4/4/4 5/5/5 6/6/6
f  7/7/7 8/8/8 9/9/9
f  10/10/10 11/11/11 12/12/12
f  13/13/13 14/14/14 15/15/15
f  16/16/16 17/17/17 18/18/18
f  19/19/19 20/20/20 21/21/21
f  22/22/22 23/23/23 24/24/24
f  25/25/25 26/26/26 27/27/27
f  28/28/28 29/29/29 30/30/30
f  31/31/31 32/32/32 33/33/33
f  34/34/34 35/35/35 36/36/36
f  37/37/37 38/38/38 39/39/39
f  40/40/40 41/41/41 42/42/42
f  43/43/43 44/44/44 45/45/45
f  46/46/46 47/47/47 48/48/48
f  49/49/49 50/50/50 51/51/51
f  52/52/52 53/53/53 54/54/54
f  55/55/55 56/56/56 57/57/57
f  58/58/58 59/59/59 60/60/60
f  61/61/61 62/62/62 63/63/63
f  64/64/64 65/65/65 66/66/66
f  67/67/67 68/68/68 69/69/69
f  70/70/70 71/71/71 72/72/72
f  73/73/73 74/74/74 75/75/75
f  76/76/76 77/77/77 78/78/78
f  79/79/79 80/80/80 81/81/81
f  82/82/82 83/83/83 84/84/84
f  85/85/85 86/86/86 87/87/87
f  88/88/88 89/89/89 90/90/90
f  91/91/91 92/92/92 93/93/93
f  94/94/94 95/95/95 96/96/96
f  97/97/97 98/98/98 99/99/99
f  100/100/100 101/101/101 102/102/102
f  103/103/103 104/104/104 105/105/105
f  106/106/106 107/107/107 108/108/108
f  109/109/109 110/110/110 111/111/111
f  112/112/112 113/113/113 114/114/114
f  115/115/115 116/116/116 117/117/117
f  118/118/118 119/119/119 120/120/120
f  121/121/121 122/122/122 123/123/123
f  124/124/124 125/125/125 126/126/126
f  127/127/127 128/128/128 129/129/129
f  130/130/130 131/131/131 132/132/132
f  133/133/133 134/134/134 135/135/135
f  136/136/136 137/137/137 138/138/138
f  139/139/139 140/140/140 141/141/141
f  142/142/142 143/143/143 144/144/144
f  145/145/145 146/146/146 147/147/147
f  148/148/148 149/149/149 150/150/150
f  151/151/151 152/152/152 153/153/153
f  154/154/154 155/155/155 156/156/156
f  157/157/157 158/158/158 159/159/159
f  160/160/160 161/161/161 162/162/162
f  163/163/163 164/164/164 165/165/165
f  166/166/166 167/167/167 168/168/168
f  169/169/169 170/170/170 171/171/171
f  172/172/172 173/173/173 174/174/174
f  175/175/175 176/176/176 177/177/177
f  178/178/178 179/179/179 180/180/180
f  181/181/181 182/182/182 183/183/183
f  184/184/184 185/185/185 186/186/186
f  187/187/187 188/188/188 189/189/189
f  190/190/190 191/191/191 192/192/192
f  193/193/193 194/194/194 195/195/195
f  196/196/196 197/197/197 198/198/198
f  199/199/199 200/200/200 201/201/201
f  202/202/202 203/203/203 204/204/204
f  205/205/205 206/206/206 207/207/207
f  208/208/208 209/209/209 210/210/210
f  211/211/211 212/212/212 213/213/213
f  214/214/214 215/215/215 216/216/216
f  217/217/217 218/218/218 219/219/219
f  220/220/220 221/221/221 222/222/222
f  223/223/223 224/224/224 225/225/225
f  226/226/226 227/227/227 228/228/228
f  229/229/229 230/230/230 231/231/231
f  232/232/232 233/233/233 234/234/234
f  235/235/235 236/236/236 237/237/237
f  238/238/238 239/239/239 240/240/240
f  241/241/241 242/242/242 243/243/243
f  244/244/244 245/245/245 246/246/246
f  247/247/247 248/248/248 249/249/249
f  250/250/250 251/251/251 252/252/252
f  253/253/253 254/254/254 255/255/255
f  256/256/256 257/257/257 258/258/258
f  259/259/259 260/260/260 261/261/261
f  262/262/262 263/263/263 264/264/264
f  265/265/265 266/266/266 267/267/267
f  268/268/268 269/269/269 270/270/270
f  271/271/271 272/272/272 273/273/273
f  274/274/274 275/275/275 276/276/276

