# File produced by Open Asset Import Library (http://www.assimp.sf.net)
# (assimp v3.0.1262)

mtllib concave.dae.obj.mtl

# 282 vertex positions
v  2 1.79773 0.139199
v  2 1.8685 0.12742
v  -2 1.79773 0.139199
v  -2 1.79773 0.139199
v  2 1.8685 0.12742
v  -2 1.8685 0.12742
v  -2 1.79773 0.139199
v  -2 1.75598 0.120611
v  2 1.79773 0.139199
v  2 1.79773 0.139199
v  -2 1.75598 0.120611
v  2 1.75598 0.120611
v  -2 1.75598 0.120611
v  -2 1.74718 0.111814
v  2 1.75598 0.120611
v  2 1.75598 0.120611
v  -2 1.74718 0.111814
v  2 1.74718 0.111814
v  -2 1.72859 0.070064
v  -2 1.74037 0
v  2 1.72859 0.070064
v  2 1.72859 0.070064
v  -2 1.74037 0
v  2 1.74037 0
v  2 1.72859 0.070064
v  2 1.74718 0.111814
v  -2 1.72859 0.070064
v  -2 1.72859 0.070064
v  2 1.74718 0.111814
v  -2 1.74718 0.111814
v  1 0.30732 0.046506
v  2 0.30732 0.046506
v  1 0.30732 0
v  1 0.30732 0
v  2 0.30732 0.046506
v  2 0.30732 0
v  2 0.30732 0.046506
v  1 0.30732 0.046506
v  2 0.28026 0.062374
v  2 0.28026 0.062374
v  1 0.30732 0.046506
v  0.978133 0.28026 0.062374
v  -0.720146 0.30732 0
v  -0.720146 0.30732 0.046506
v  0.720146 0.30732 0
v  0.720146 0.30732 0
v  -0.720146 0.30732 0.046506
v  0.720146 0.30732 0.046506
v  -0.720146 0.30732 0.046506
v  -0.742013 0.28026 0.062374
v  0.720146 0.30732 0.046506
v  0.720146 0.30732 0.046506
v  -0.742013 0.28026 0.062374
v  0.742013 0.28026 0.062374
v  -2 0.30732 0.046506
v  -1 0.30732 0.046506
v  -2 0.30732 0
v  -2 0.30732 0
v  -1 0.30732 0.046506
v  -1 0.30732 0
v  -0.978133 0.28026 0.062374
v  -1 0.30732 0.046506
v  -2 0.28026 0.062374
v  -2 0.28026 0.062374
v  -1 0.30732 0.046506
v  -2 0.30732 0.046506
v  0.978133 0.28026 0.062374
v  2 0.18479 0.062374
v  2 0.28026 0.062374
v  1 1.0074 0
v  2 1.0074 0
v  1 1.0074 0.046506
v  1 1.0074 0.046506
v  2 1.0074 0
v  2 1.0074 0.046506
v  2 1.0074 0.046506
v  2 1.03446 0.062374
v  1 1.0074 0.046506
v  1 1.0074 0.046506
v  2 1.03446 0.062374
v  0.978133 1.03446 0.062374
v  -0.742013 1.03446 0.062374
v  -0.720146 1.0074 0.046506
v  0.742013 1.03446 0.062374
v  0.742013 1.03446 0.062374
v  -0.720146 1.0074 0.046506
v  0.720146 1.0074 0.046506
v  -0.720146 1.0074 0.046506
v  -0.720146 1.0074 0
v  0.720146 1.0074 0.046506
v  0.720146 1.0074 0.046506
v  -0.720146 1.0074 0
v  0.720146 1.0074 0
v  -0.978133 1.03446 0.062374
v  -2 1.03446 0.062374
v  -1 1.0074 0.046506
v  -1 1.0074 0.046506
v  -2 1.03446 0.062374
v  -2 1.0074 0.046506
v  -2 1.0074 0
v  -1 1.0074 0
v  -2 1.0074 0.046506
v  -2 1.0074 0.046506
v  -1 1.0074 0
v  -1 1.0074 0.046506
v  2 2 2
v  -2 2 2
v  2 1.8685 2
v  2 1.8685 2
v  -2 2 2
v  -2 1.8685 2
v  2 1.8685 0.12742
v  2 1.8685 2
v  -2 1.8685 0.12742
v  -2 1.8685 0.12742
v  2 1.8685 2
v  -2 1.8685 2
v  -2 1.16929 0
v  -2 1.16929 0.046506
v  2 1.16929 0
v  2 1.16929 0
v  -2 1.16929 0.046506
v  2 1.16929 0.046506
v  -2 1.16929 0.046506
v  -2 1.14224 0.062374
v  2 1.16929 0.046506
v  2 1.16929 0.046506
v  -2 1.14224 0.062374
v  2 1.14224 0.062374
v  -2 1.14224 0.062374
v  -2 1.03446 0.062374
v  -0.978133 1.03446 0.062374
v  -2 0.18479 0.062374
v  -2 0.18479 0.171368
v  2 0.18479 0.062374
v  2 0.18479 0.062374
v  -2 0.18479 0.171368
v  2 0.18479 0.171368
v  -2 0.18479 0.171368
v  -2 0.15623 0.228163
v  2 0.18479 0.171368
v  2 0.18479 0.171368
v  -2 0.15623 0.228163
v  2 0.15623 0.228163
v  -2 0.15623 0.228163
v  -2 0.10151 0.251817
v  2 0.15623 0.228163
v  2 0.15623 0.228163
v  -2 0.10151 0.251817
v  2 0.10151 0.251817
v  -2 0.10151 0.251817
v  -2 0.0176301 0.251817
v  2 0.10151 0.251817
v  2 0.10151 0.251817
v  -2 0.0176301 0.251817
v  2 0.0176301 0.251817
v  -2 0.0176301 0.251817
v  -2 0 0.234192
v  2 0.0176301 0.251817
v  2 0.0176301 0.251817
v  -2 0 0.234192
v  2 0 0.234192
v  -2 0 0.234192
v  -2 0 0.20112
v  2 0 0.234192
v  2 0 0.234192
v  -2 0 0.20112
v  2 0 0.20112
v  0.720146 1.0074 0
v  0.720146 0.30732 0
v  0.720146 1.0074 0.046506
v  0.720146 1.0074 0.046506
v  0.720146 0.30732 0
v  0.720146 0.30732 0.046506
v  -0.720146 1.0074 0.046506
v  -0.720146 0.30732 0.046506
v  -0.720146 1.0074 0
v  -0.720146 1.0074 0
v  -0.720146 0.30732 0.046506
v  -0.720146 0.30732 0
v  -1 1.0074 0.046506
v  -1 0.30732 0.046506
v  -0.978133 1.03446 0.062374
v  -0.978133 1.03446 0.062374
v  -1 0.30732 0.046506
v  -0.978133 0.28026 0.062374
v  0.720146 1.0074 0.046506
v  0.720146 0.30732 0.046506
v  0.742013 1.03446 0.062374
v  0.742013 1.03446 0.062374
v  0.720146 0.30732 0.046506
v  0.742013 0.28026 0.062374
v  0.978133 1.03446 0.062374
v  0.978133 0.28026 0.062374
v  1 1.0074 0.046506
v  1 1.0074 0.046506
v  0.978133 0.28026 0.062374
v  1 0.30732 0.046506
v  0.742013 1.03446 0.062374
v  0.742013 0.28026 0.062374
v  0.978133 1.03446 0.062374
v  0.978133 1.03446 0.062374
v  0.742013 0.28026 0.062374
v  0.978133 0.28026 0.062374
v  -0.742013 1.03446 0.062374
v  -0.742013 0.28026 0.062374
v  -0.720146 1.0074 0.046506
v  -0.720146 1.0074 0.046506
v  -0.742013 0.28026 0.062374
v  -0.720146 0.30732 0.046506
v  -0.978133 1.03446 0.062374
v  -0.978133 0.28026 0.062374
v  -0.742013 1.03446 0.062374
v  -0.742013 1.03446 0.062374
v  -0.978133 0.28026 0.062374
v  -0.742013 0.28026 0.062374
v  -1 0.30732 0
v  -1 0.30732 0.046506
v  -1 1.0074 0
v  -1 1.0074 0
v  -1 0.30732 0.046506
v  -1 1.0074 0.046506
v  2 1.14224 0.062374
v  0.742013 1.03446 0.062374
v  0.978133 1.03446 0.062374
v  -2 1.14224 0.062374
v  -0.742013 1.03446 0.062374
v  2 1.14224 0.062374
v  2 1.14224 0.062374
v  -0.742013 1.03446 0.062374
v  0.742013 1.03446 0.062374
v  -2 1.14224 0.062374
v  -0.978133 1.03446 0.062374
v  -0.742013 1.03446 0.062374
v  2 1.14224 0.062374
v  0.978133 1.03446 0.062374
v  2 1.03446 0.062374
v  0.742013 0.28026 0.062374
v  2 0.18479 0.062374
v  0.978133 0.28026 0.062374
v  -0.742013 0.28026 0.062374
v  -2 0.18479 0.062374
v  0.742013 0.28026 0.062374
v  0.742013 0.28026 0.062374
v  -2 0.18479 0.062374
v  2 0.18479 0.062374
v  -0.742013 0.28026 0.062374
v  -0.978133 0.28026 0.062374
v  -2 0.18479 0.062374
v  -2 0.18479 0.062374
v  -0.978133 0.28026 0.062374
v  -2 0.28026 0.062374
v  1 1.0074 0
v  1 1.0074 0.046506
v  1 0.30732 0
v  1 0.30732 0
v  1 1.0074 0.046506
v  1 0.30732 0.046506
v  -1 1.0074 0
v  -2 1.0074 0
v  -1 0.30732 0
v  -1 0.30732 0
v  -2 1.0074 0
v  -2 0.30732 0
v  -0.720146 1.0074 0
v  -0.720146 0.30732 0
v  0.720146 1.0074 0
v  0.720146 1.0074 0
v  -0.720146 0.30732 0
v  0.720146 0.30732 0
v  2 1.0074 0
v  1 1.0074 0
v  2 0.30732 0
v  2 0.30732 0
v  1 1.0074 0
v  1 0.30732 0
v  2 1.16929 0
v  2 1.74037 0
v  -2 1.16929 0
v  -2 1.16929 0
v  2 1.74037 0
v  -2 1.74037 0

# 282 UV coordinates
vt 0.996797 0.040014 0
vt 0.996797 0.012542 0
vt 0.004234 0.040014 0
vt 0.004234 0.040014 0
vt 0.996797 0.012542 0
vt 0.004234 0.012542 0
vt 0.004234 0.040014 0
vt 0.004234 0.022507 0
vt 0.996797 0.040014 0
vt 0.996797 0.040014 0
vt 0.004234 0.022507 0
vt 0.996797 0.022507 0
vt 0.004234 0.022507 0
vt 0.004234 0.013897 0
vt 0.996797 0.022507 0
vt 0.996797 0.022507 0
vt 0.004234 0.013897 0
vt 0.996797 0.013897 0
vt 0.996797 0.040014 0
vt 0.996797 0.012542 0
vt 0.004234 0.040014 0
vt 0.004234 0.040014 0
vt 0.996797 0.012542 0
vt 0.004234 0.012542 0
vt 0.004234 0.040014 0
vt 0.004234 0.022507 0
vt 0.996797 0.040014 0
vt 0.996797 0.040014 0
vt 0.004234 0.022507 0
vt 0.996797 0.022507 0
vt 0.765376 0.139326 0
vt 0.970431 0.139186 0
vt 0.765384 0.148842 0
vt 0.765384 0.148842 0
vt 0.970431 0.139186 0
vt 0.970436 0.148741 0
vt 0.970431 0.139186 0
vt 0.765376 0.139326 0
vt 0.970426 0.132743 0
vt 0.970426 0.132743 0
vt 0.765376 0.139326 0
vt 0.760888 0.132909 0
vt 0.339093 0.148341 0
vt 0.339089 0.138806 0
vt 0.634429 0.148266 0
vt 0.634429 0.148266 0
vt 0.339089 0.138806 0
vt 0.634427 0.138731 0
vt 0.339089 0.138806 0
vt 0.334604 0.13237 0
vt 0.634427 0.138731 0
vt 0.634427 0.138731 0
vt 0.334604 0.13237 0
vt 0.638909 0.132303 0
vt 0.030982 0.138778 0
vt 0.236037 0.138745 0
vt 0.030982 0.148334 0
vt 0.030982 0.148334 0
vt 0.236037 0.138745 0
vt 0.236041 0.14826 0
vt 0.240521 0.132324 0
vt 0.236037 0.138745 0
vt 0.030982 0.132336 0
vt 0.030982 0.132336 0
vt 0.236037 0.138745 0
vt 0.030982 0.138778 0
vt 0.743363 0.126247 0
vt 0.996797 0.102549 0
vt 0.996797 0.126247 0
vt 0.76544 0.292389 0
vt 0.970497 0.292314 0
vt 0.765443 0.301904 0
vt 0.765443 0.301904 0
vt 0.970497 0.292314 0
vt 0.970497 0.301871 0
vt 0.970497 0.301871 0
vt 0.970497 0.308313 0
vt 0.765443 0.301904 0
vt 0.765443 0.301904 0
vt 0.970497 0.308313 0
vt 0.760959 0.308325 0
vt 0.334653 0.307872 0
vt 0.339136 0.301438 0
vt 0.638959 0.307782 0
vt 0.638959 0.307782 0
vt 0.339136 0.301438 0
vt 0.634473 0.301354 0
vt 0.339136 0.301438 0
vt 0.339132 0.291895 0
vt 0.634473 0.301354 0
vt 0.634473 0.301354 0
vt 0.339132 0.291895 0
vt 0.634469 0.291824 0
vt 0.240588 0.307733 0
vt 0.03105 0.307914 0
vt 0.236099 0.301317 0
vt 0.236099 0.301317 0
vt 0.03105 0.307914 0
vt 0.031044 0.30147 0
vt 0.03104 0.291911 0
vt 0.236091 0.291805 0
vt 0.031044 0.30147 0
vt 0.031044 0.30147 0
vt 0.236091 0.291805 0
vt 0.236099 0.301317 0
vt 0.997121 0.995509 0
vt 0.00435 0.995509 0
vt 0.997121 0.962871 0
vt 0.997121 0.962871 0
vt 0.00435 0.995509 0
vt 0.00435 0.962871 0
vt 0.997121 0.530293 0
vt 0.997121 0.962871 0
vt 0.00435 0.530293 0
vt 0.00435 0.530293 0
vt 0.997121 0.962871 0
vt 0.00435 0.962871 0
vt 0.004234 0.359264 0
vt 0.004234 0.347746 0
vt 0.996797 0.359264 0
vt 0.996797 0.359264 0
vt 0.004234 0.347746 0
vt 0.996797 0.347746 0
vt 0.004234 0.347746 0
vt 0.004234 0.34001 0
vt 0.996797 0.347746 0
vt 0.996797 0.347746 0
vt 0.004234 0.34001 0
vt 0.996797 0.34001 0
vt 0.004234 0.34001 0
vt 0.004234 0.313256 0
vt 0.25769 0.313256 0
vt 0.004234 0.102549 0
vt 0.004234 0.075578 0
vt 0.996797 0.102549 0
vt 0.996797 0.102549 0
vt 0.004234 0.075578 0
vt 0.996797 0.075578 0
vt 0.004234 0.075578 0
vt 0.004234 0.059648 0
vt 0.996797 0.075578 0
vt 0.996797 0.075578 0
vt 0.004234 0.059648 0
vt 0.996797 0.059648 0
vt 0.004234 0.059648 0
vt 0.004234 0.043393 0
vt 0.996797 0.059648 0
vt 0.996797 0.059648 0
vt 0.004234 0.043393 0
vt 0.996797 0.043393 0
vt 0.004234 0.043393 0
vt 0.004234 0.022507 0
vt 0.996797 0.043393 0
vt 0.996797 0.043393 0
vt 0.004234 0.022507 0
vt 0.996797 0.022507 0
vt 0.004234 0.022507 0
vt 0.004234 0.016234 0
vt 0.996797 0.022507 0
vt 0.996797 0.022507 0
vt 0.004234 0.016234 0
vt 0.996797 0.016234 0
vt 0.004234 0.016234 0
vt 0.004234 0.007991 0
vt 0.996797 0.016234 0
vt 0.996797 0.016234 0
vt 0.004234 0.007991 0
vt 0.996797 0.007991 0
vt 0.634469 0.291824 0
vt 0.634429 0.148266 0
vt 0.644014 0.291819 0
vt 0.644014 0.291819 0
vt 0.634429 0.148266 0
vt 0.643955 0.148262 0
vt 0.329605 0.2919 0
vt 0.329549 0.148344 0
vt 0.339132 0.291895 0
vt 0.339132 0.291895 0
vt 0.329549 0.148344 0
vt 0.339093 0.148341 0
vt 0.245614 0.291808 0
vt 0.245589 0.148252 0
vt 0.251151 0.297355 0
vt 0.251151 0.297355 0
vt 0.245589 0.148252 0
vt 0.251133 0.142703 0
vt 0.644014 0.291819 0
vt 0.643955 0.148262 0
vt 0.649561 0.297363 0
vt 0.649561 0.297363 0
vt 0.643955 0.148262 0
vt 0.649487 0.142711 0
vt 0.750361 0.297946 0
vt 0.750312 0.143294 0
vt 0.7559 0.292396 0
vt 0.7559 0.292396 0
vt 0.750312 0.143294 0
vt 0.755853 0.14884 0
vt 0.684758 0.313256 0
vt 0.684758 0.126247 0
vt 0.743363 0.313256 0
vt 0.743363 0.313256 0
vt 0.684758 0.126247 0
vt 0.743363 0.126247 0
vt 0.324003 0.297451 0
vt 0.324003 0.142799 0
vt 0.329605 0.2919 0
vt 0.329605 0.2919 0
vt 0.324003 0.142799 0
vt 0.329549 0.148344 0
vt 0.25769 0.313256 0
vt 0.25769 0.126247 0
vt 0.316294 0.313256 0
vt 0.316294 0.313256 0
vt 0.25769 0.126247 0
vt 0.316294 0.126247 0
vt 0.236041 0.14826 0
vt 0.245589 0.148252 0
vt 0.236091 0.291805 0
vt 0.236091 0.291805 0
vt 0.245589 0.148252 0
vt 0.245614 0.291808 0
vt 0.996797 0.34001 0
vt 0.684758 0.313256 0
vt 0.743363 0.313256 0
vt 0.004234 0.34001 0
vt 0.316294 0.313256 0
vt 0.996797 0.34001 0
vt 0.996797 0.34001 0
vt 0.316294 0.313256 0
vt 0.684758 0.313256 0
vt 0.004234 0.34001 0
vt 0.25769 0.313256 0
vt 0.316294 0.313256 0
vt 0.996797 0.34001 0
vt 0.743363 0.313256 0
vt 0.996797 0.313256 0
vt 0.684758 0.126247 0
vt 0.996797 0.102549 0
vt 0.743363 0.126247 0
vt 0.316294 0.126247 0
vt 0.004234 0.102549 0
vt 0.684758 0.126247 0
vt 0.684758 0.126247 0
vt 0.004234 0.102549 0
vt 0.996797 0.102549 0
vt 0.316294 0.126247 0
vt 0.25769 0.126247 0
vt 0.004234 0.102549 0
vt 0.004234 0.102549 0
vt 0.25769 0.126247 0
vt 0.004234 0.126247 0
vt 0.76544 0.292389 0
vt 0.7559 0.292396 0
vt 0.765384 0.148842 0
vt 0.765384 0.148842 0
vt 0.7559 0.292396 0
vt 0.755853 0.14884 0
vt 0.236091 0.291805 0
vt 0.03104 0.291911 0
vt 0.236041 0.14826 0
vt 0.236041 0.14826 0
vt 0.03104 0.291911 0
vt 0.030982 0.148334 0
vt 0.339132 0.291895 0
vt 0.339093 0.148341 0
vt 0.634469 0.291824 0
vt 0.634469 0.291824 0
vt 0.339093 0.148341 0
vt 0.634429 0.148266 0
vt 0.970497 0.292314 0
vt 0.76544 0.292389 0
vt 0.970436 0.148741 0
vt 0.970436 0.148741 0
vt 0.76544 0.292389 0
vt 0.765384 0.148842 0
vt 0.997121 0.370528 0
vt 0.997121 0.52581 0
vt 0.00435 0.370528 0
vt 0.00435 0.370528 0
vt 0.997121 0.52581 0
vt 0.00435 0.52581 0

# 282 vertex normals
vn 0 -0.126639 0.991949
vn 0 0.164185 0.98643
vn 0 -0.126639 0.991949
vn 0 -0.126639 0.991949
vn 0 0.164185 0.98643
vn 0 0.164185 0.98643
vn 0 -0.126639 0.991949
vn 0 -0.566411 0.824123
vn 0 -0.126639 0.991949
vn 0 -0.126639 0.991949
vn 0 -0.566411 0.824123
vn 0 -0.566411 0.824123
vn 0 -0.566411 0.824123
vn 0 -0.824123 0.56641
vn 0 -0.566411 0.824123
vn 0 -0.566411 0.824123
vn 0 -0.824123 0.56641
vn 0 -0.824123 0.56641
vn 0 -0.992052 0.125828
vn 0 -0.986161 -0.165793
vn 0 -0.992052 0.125828
vn 0 -0.992052 0.125828
vn 0 -0.986161 -0.165793
vn 0 -0.986161 -0.165793
vn 0 -0.992052 0.125828
vn 0 -0.824123 0.56641
vn 0 -0.992052 0.125828
vn 0 -0.992052 0.125828
vn 0 -0.824123 0.56641
vn 0 -0.824123 0.56641
vn 0 1 0
vn 0 1 0
vn 0 1 0
vn 0 1 0
vn 0 1 0
vn 0 1 0
vn 0 0.505903 0.86259
vn 0 0.505903 0.86259
vn 0 0.505903 0.86259
vn 0 0.505903 0.86259
vn 0 0.505903 0.86259
vn 0 0.505903 0.86259
vn 0 1 0
vn 0 1 0
vn 0 1 0
vn 0 1 0
vn 0 1 0
vn 0 1 0
vn 0 0.505903 0.86259
vn 0 0.505903 0.86259
vn 0 0.505903 0.86259
vn 0 0.505903 0.86259
vn 0 0.505903 0.86259
vn 0 0.505903 0.86259
vn 0 1 0
vn 0 1 0
vn 0 1 0
vn 0 1 0
vn 0 1 0
vn 0 1 0
vn 0 0.505903 0.86259
vn 0 0.505903 0.86259
vn 0 0.505903 0.86259
vn 0 0.505903 0.86259
vn 0 0.505903 0.86259
vn 0 0.505903 0.86259
vn 0 0 1
vn 0 0 1
vn 0 0 1
vn 0 -1 0
vn 0 -1 0
vn 0 -1 0
vn 0 -1 0
vn 0 -1 0
vn 0 -1 0
vn 0 -0.505903 0.86259
vn 0 -0.505903 0.86259
vn 0 -0.505903 0.86259
vn 0 -0.505903 0.86259
vn 0 -0.505903 0.86259
vn 0 -0.505903 0.86259
vn 0 -0.505915 0.862584
vn 0 -0.505915 0.862584
vn 0 -0.505915 0.862584
vn 0 -0.505915 0.862584
vn 0 -0.505915 0.862584
vn 0 -0.505915 0.862584
vn 0 -1 0
vn 0 -1 0
vn 0 -1 0
vn 0 -1 0
vn 0 -1 0
vn 0 -1 0
vn 0 -0.505903 0.86259
vn 0 -0.505903 0.86259
vn 0 -0.505903 0.86259
vn 0 -0.505903 0.86259
vn 0 -0.505903 0.86259
vn 0 -0.505903 0.86259
vn 0 -1 0
vn 0 -1 0
vn 0 -1 0
vn 0 -1 0
vn 0 -1 0
vn 0 -1 0
vn 0 0 1
vn 0 0 1
vn 0 0 1
vn 0 0 1
vn 0 0 1
vn 0 0 1
vn 0 -1 0
vn 0 -1 0
vn 0 -1 0
vn 0 -1 0
vn 0 -1 0
vn 0 -1 0
vn 0 1 0
vn 0 0.867727 0.497041
vn 0 1 0
vn 0 1 0
vn 0 0.867727 0.497041
vn 0 0.867727 0.497041
vn 0 0.867727 0.497041
vn 0 0.262115 0.965037
vn 0 0.867727 0.497041
vn 0 0.867727 0.497041
vn 0 0.262115 0.965037
vn 0 0.262115 0.965037
vn 0 0 1
vn 0 0 1
vn 0 0 1
vn 0 1 0
vn 0 0.972985 0.230866
vn 0 1 0
vn 0 1 0
vn 0 0.972985 0.230866
vn 0 0.972985 0.230866
vn 0 0.972985 0.230866
vn 0 0.686338 0.727283
vn 0 0.972985 0.230866
vn 0 0.972985 0.230866
vn 0 0.686338 0.727283
vn 0 0.686338 0.727283
vn 0 0.686338 0.727283
vn 0 0.2026 0.979262
vn 0 0.686338 0.727283
vn 0 0.686338 0.727283
vn 0 0.2026 0.979262
vn 0 0.2026 0.979262
vn 0 0.2026 0.979262
vn 0 -0.382683 0.92388
vn 0 0.2026 0.979262
vn 0 0.2026 0.979262
vn 0 -0.382683 0.92388
vn 0 -0.382683 0.92388
vn 0 -0.382683 0.92388
vn 0 -0.92388 0.382683
vn 0 -0.382683 0.92388
vn 0 -0.382683 0.92388
vn 0 -0.92388 0.382683
vn 0 -0.92388 0.382683
vn 0 -0.92388 0.382683
vn 0 -1 0
vn 0 -0.92388 0.382683
vn 0 -0.92388 0.382683
vn 0 -1 0
vn 0 -1 0
vn -1 0 0
vn -1 0 0
vn -1 0 0
vn -1 0 0
vn -1 0 0
vn -1 0 0
vn 1 0 0
vn 1 0 0
vn 1 0 0
vn 1 0 0
vn 1 0 0
vn 1 0 0
vn -0.587315 0 0.809358
vn -0.587315 0 0.809358
vn -0.587315 0 0.809358
vn -0.587315 0 0.809358
vn -0.587315 0 0.809358
vn -0.587315 0 0.809358
vn -0.587318 0 0.809357
vn -0.587318 0 0.809357
vn -0.587318 0 0.809357
vn -0.587318 0 0.809357
vn -0.587318 0 0.809357
vn -0.587318 0 0.809357
vn 0.587315 0 0.809358
vn 0.587315 0 0.809358
vn 0.587315 0 0.809358
vn 0.587315 0 0.809358
vn 0.587315 0 0.809358
vn 0.587315 0 0.809358
vn 0 0 1
vn 0 0 1
vn 0 0 1
vn 0 0 1
vn 0 0 1
vn 0 0 1
vn 0.587315 0 0.809358
vn 0.587315 0 0.809358
vn 0.587315 0 0.809358
vn 0.587315 0 0.809358
vn 0.587315 0 0.809358
vn 0.587315 0 0.809358
vn 0 0 1
vn 0 0 1
vn 0 0 1
vn 0 0 1
vn 0 0 1
vn 0 0 1
vn -1 0 0
vn -1 0 0
vn -1 0 0
vn -1 0 0
vn -1 0 0
vn -1 0 0
vn 0 0 1
vn 0 0 1
vn 0 0 1
vn 0 0.262115 0.965037
vn 0 0 1
vn 0 0.262115 0.965037
vn 0 0.262115 0.965037
vn 0 0 1
vn 0 0 1
vn 0 0 1
vn 0 0 1
vn 0 0 1
vn 0 0 1
vn 0 0 1
vn 0 0 1
vn 0 0 1
vn 0 0 1
vn 0 0 1
vn 0 0 1
vn 0 0 1
vn 0 0 1
vn 0 0 1
vn 0 0 1
vn 0 0 1
vn 0 0 1
vn 0 0 1
vn 0 0 1
vn 0 0 1
vn 0 0 1
vn 0 0 1
vn 1 0 0
vn 1 0 0
vn 1 0 0
vn 1 0 0
vn 1 0 0
vn 1 0 0
vn 0 0 1
vn 0 0 1
vn 0 0 1
vn 0 0 1
vn 0 0 1
vn 0 0 1
vn 0 0 1
vn 0 0 1
vn 0 0 1
vn 0 0 1
vn 0 0 1
vn 0 0 1
vn 0 0 1
vn 0 0 1
vn 0 0 1
vn 0 0 1
vn 0 0 1
vn 0 0 1
vn 0 0 1
vn 0 0 1
vn 0 0 1
vn 0 0 1
vn 0 0 1
vn 0 0 1

# Mesh 'concave' with 94 faces
g concave
usemtl concave_material
f  1/1/1 2/2/2 3/3/3
f  4/4/4 5/5/5 6/6/6
f  7/7/7 8/8/8 9/9/9
f  10/10/10 11/11/11 12/12/12
f  13/13/13 14/14/14 15/15/15
f  16/16/16 17/17/17 18/18/18
f  19/19/19 20/20/20 21/21/21
f  22/22/22 23/23/23 24/24/24
f  25/25/25 26/26/26 27/27/27
f  28/28/28 29/29/29 30/30/30
f  31/31/31 32/32/32 33/33/33
f  34/34/34 35/35/35 36/36/36
f  37/37/37 38/38/38 39/39/39
f  40/40/40 41/41/41 42/42/42
f  43/43/43 44/44/44 45/45/45
f  46/46/46 47/47/47 48/48/48
f  49/49/49 50/50/50 51/51/51
f  52/52/52 53/53/53 54/54/54
f  55/55/55 56/56/56 57/57/57
f  58/58/58 59/59/59 60/60/60
f  61/61/61 62/62/62 63/63/63
f  64/64/64 65/65/65 66/66/66
f  67/67/67 68/68/68 69/69/69
f  70/70/70 71/71/71 72/72/72
f  73/73/73 74/74/74 75/75/75
f  76/76/76 77/77/77 78/78/78
f  79/79/79 80/80/80 81/81/81
f  82/82/82 83/83/83 84/84/84
f  85/85/85 86/86/86 87/87/87
f  88/88/88 89/89/89 90/90/90
f  91/91/91 92/92/92 93/93/93
f  94/94/94 95/95/95 96/96/96
f  97/97/97 98/98/98 99/99/99
f  100/100/100 101/101/101 102/102/102
f  103/103/103 104/104/104 105/105/105
f  106/106/106 107/107/107 108/108/108
f  109/109/109 110/110/110 111/111/111
f  112/112/112 113/113/113 114/114/114
f  115/115/115 116/116/116 117/117/117
f  118/118/118 119/119/119 120/120/120
f  121/121/121 122/122/122 123/123/123
f  124/124/124 125/125/125 126/126/126
f  127/127/127 128/128/128 129/129/129
f  130/130/130 131/131/131 132/132/132
f  133/133/133 134/134/134 135/135/135
f  136/136/136 137/137/137 138/138/138
f  139/139/139 140/140/140 141/141/141
f  142/142/142 143/143/143 144/144/144
f  145/145/145 146/146/146 147/147/147
f  148/148/148 149/149/149 150/150/150
f  151/151/151 152/152/152 153/153/153
f  154/154/154 155/155/155 156/156/156
f  157/157/157 158/158/158 159/159/159
f  160/160/160 161/161/161 162/162/162
f  163/163/163 164/164/164 165/165/165
f  166/166/166 167/167/167 168/168/168
f  169/169/169 170/170/170 171/171/171
f  172/172/172 173/173/173 174/174/174
f  175/175/175 176/176/176 177/177/177
f  178/178/178 179/179/179 180/180/180
f  181/181/181 182/182/182 183/183/183
f  184/184/184 185/185/185 186/186/186
f  187/187/187 188/188/188 189/189/189
f  190/190/190 191/191/191 192/192/192
f  193/193/193 194/194/194 195/195/195
f  196/196/196 197/197/197 198/198/198
f  199/199/199 200/200/200 201/201/201
f  202/202/202 203/203/203 204/204/204
f  205/205/205 206/206/206 207/207/207
f  208/208/208 209/209/209 210/210/210
f  211/211/211 212/212/212 213/213/213
f  214/214/214 215/215/215 216/216/216
f  217/217/217 218/218/218 219/219/219
f  220/220/220 221/221/221 222/222/222
f  223/223/223 224/224/224 225/225/225
f  226/226/226 227/227/227 228/228/228
f  229/229/229 230/230/230 231/231/231
f  232/232/232 233/233/233 234/234/234
f  235/235/235 236/236/236 237/237/237
f  238/238/238 239/239/239 240/240/240
f  241/241/241 242/242/242 243/243/243
f  244/244/244 245/245/245 246/246/246
f  247/247/247 248/248/248 249/249/249
f  250/250/250 251/251/251 252/252/252
f  253/253/253 254/254/254 255/255/255
f  256/256/256 257/257/257 258/258/258
f  259/259/259 260/260/260 261/261/261
f  262/262/262 263/263/263 264/264/264
f  265/265/265 266/266/266 267/267/267
f  268/268/268 269/269/269 270/270/270
f  271/271/271 272/272/272 273/273/273
f  274/274/274 275/275/275 276/276/276
f  277/277/277 278/278/278 279/279/279
f  280/280/280 281/281/281 282/282/282

