# File produced by Open Asset Import Library (http://www.assimp.sf.net)
# (assimp v3.1.187496374)

mtllib default02.obj.mtl

# 208 vertex positions
v  -2 0 0.085102
v  2 0 0.085102
v  -2 0.097252 0.085102
v  2 0.097252 0.085102
v  -2 0.200063 0.026853
v  2 0.200063 0.026853
v  -2 3.76999 0
v  -2 0.200063 0
v  2 3.76999 0
v  2 0.200063 0
v  -2 3.76999 0.023204
v  2 3.76999 0.023204
v  -2 3.92904 0.234043
v  2 3.92904 0.234043
v  -2 3.96754 0.234043
v  -2 3.89586 0.200369
v  2 3.89586 0.200369
v  2 3.96754 0.234043
v  -2 4 0.201121
v  2 4 0.201121
v  -2 4 0
v  2 4 0
v  2 3.88222 0.10293
v  -2 3.88222 0.10293
v  2 3.82395 0.039825
v  -2 3.82395 0.039825
v  0.165217 3.37784 0.069096
v  0.165217 0.25974 0.069096
v  0.206467 3.37784 -0.012446
v  0.206467 0.25974 -0.012446
v  -0.165223 3.37784 0.069096
v  -0.165223 0.25974 0.069096
v  -0.206473 3.37784 -0.012446
v  -0.206472 0.25974 -0.012446
v  -0.228081 0 0.149124
v  0.228076 0 0.149124
v  -0.250416 0.032416 0.171458
v  0.250411 0.032416 0.171458
v  -0.250416 0.097252 0.171458
v  0.250411 0.097252 0.171458
v  0.285022 0 0.072609
v  0.312932 0.032416 0.072609
v  0.312932 0.097252 0.072609
v  -0.285024 0 0.072609
v  -0.312932 0.032416 0.072609
v  -0.312932 0.097252 0.072609
v  0.228076 3.63758 0.131729
v  -0.228082 3.63758 0.131729
v  0.250411 3.60516 0.154062
v  -0.250416 3.60516 0.154062
v  -0.250416 3.54032 0.154062
v  0.250411 3.54032 0.154062
v  -0.182931 3.48161 0.086699
v  0.182922 3.48161 0.086699
v  -0.189983 3.4111 0.093627
v  0.189978 3.4111 0.093627
v  -0.285027 3.63758 -0.012446
v  -0.312933 3.60516 -0.012446
v  -0.312933 3.54032 -0.012446
v  -0.228601 3.48161 -0.012446
v  -0.237415 3.4111 -0.012446
v  0.285022 3.63758 -0.012446
v  0.312928 3.60516 -0.012446
v  0.312928 3.54032 -0.012446
v  0.228591 3.48161 -0.012446
v  0.237412 3.4111 -0.012446
v  0.209443 1.95261 0.123679
v  -0.209448 1.95261 0.123679
v  0.182347 1.92631 0.08711
v  -0.209448 2.01745 0.123679
v  0.209443 2.01745 0.123679
v  -0.182347 1.92631 0.08711
v  0.189375 1.85581 0.09404
v  -0.189378 1.85581 0.09404
v  0.164694 1.82254 0.068359
v  -0.164696 1.82254 0.068359
v  -0.182347 2.04374 0.08711
v  0.182347 2.04374 0.08711
v  -0.189378 2.11425 0.09404
v  0.189375 2.11425 0.09404
v  -0.164696 2.14752 0.068359
v  0.164694 2.14752 0.068359
v  0.261735 1.95261 -0.013183
v  0.227869 1.92631 -0.013183
v  0.261735 2.01745 -0.013183
v  0.227869 2.04374 -0.013183
v  0.236655 2.11425 -0.013183
v  0.205812 2.14752 -0.013183
v  0.236655 1.85581 -0.013183
v  0.205812 1.82254 -0.013183
v  -0.261736 1.95261 -0.013183
v  -0.227869 1.92631 -0.013183
v  -0.261736 2.01745 -0.013183
v  -0.23666 1.85581 -0.013183
v  -0.205813 1.82254 -0.013183
v  -0.227869 2.04374 -0.013183
v  -0.23666 2.11425 -0.013183
v  -0.205813 2.14752 -0.013183
v  1.79353 3.37784 -0.012447
v  1.79353 0.25974 -0.012447
v  1.83478 3.37784 0.069095
v  1.83478 0.25974 0.069095
v  1.77192 0 0.149124
v  1.74959 0.032416 0.171458
v  1.71498 0 0.072608
v  1.68707 0.032416 0.072608
v  1.74959 0.097252 0.171458
v  1.68707 0.097252 0.072608
v  1.71498 3.63758 -0.012447
v  1.68707 3.60516 -0.012447
v  1.77192 3.63758 0.131727
v  1.74959 3.60516 0.154061
v  1.68707 3.54032 -0.012447
v  1.74959 3.54032 0.154061
v  1.7714 3.48161 -0.012447
v  1.81707 3.48161 0.086698
v  1.76259 3.4111 -0.012447
v  1.81002 3.4111 0.093627
v  2 3.63758 -0.012447
v  2 3.63758 0.131727
v  2 3.60516 0.154061
v  2 3.54032 0.154061
v  2 3.48161 0.086698
v  2 3.4111 0.093627
v  2 3.37784 0.069095
v  2 0.25974 0.069095
v  2 0.097252 0.171458
v  2 0.032416 0.171458
v  2 0 0.149124
v  1.79124 1.95261 0.122239
v  1.73875 1.95261 -0.013475
v  1.81845 1.92631 0.08567
v  1.79124 2.01745 0.122239
v  1.77275 1.92631 -0.013475
v  1.73875 2.01745 -0.013475
v  1.81139 1.85581 0.0926
v  1.76392 1.85581 -0.013475
v  1.79489 1.82254 -0.013475
v  1.83617 1.82254 0.068067
v  1.81845 2.04374 0.08567
v  1.77275 2.04374 -0.013475
v  1.81139 2.11425 0.0926
v  1.76392 2.11425 -0.013475
v  1.79489 2.14752 -0.013475
v  1.83617 2.14752 0.068067
v  2 2.11425 0.0926
v  2 2.14752 0.068067
v  2 2.04374 0.08567
v  2 2.01745 0.122239
v  2 1.95261 0.122239
v  2 1.92631 0.08567
v  2 1.85581 0.0926
v  2 1.82254 0.068067
v  -1.83478 3.37784 0.069095
v  -1.83478 0.25974 0.069095
v  -1.79353 3.37784 -0.012447
v  -1.79353 0.25974 -0.012447
v  -1.77192 0 0.149124
v  -1.71498 0 0.072608
v  -1.74958 0.032416 0.171458
v  -1.68707 0.032416 0.072608
v  -1.68707 0.097252 0.072608
v  -1.74958 0.097252 0.171458
v  -1.71498 3.63758 -0.012447
v  -1.77192 3.63758 0.131727
v  -1.68707 3.60516 -0.012447
v  -1.74959 3.60516 0.154061
v  -1.68707 3.54032 -0.012447
v  -1.74959 3.54032 0.154061
v  -1.7714 3.48161 -0.012447
v  -1.81707 3.48161 0.086698
v  -1.76259 3.4111 -0.012447
v  -1.81002 3.4111 0.093627
v  -2 0 0.149124
v  -2 0.032416 0.171458
v  -2 0.097252 0.171458
v  -2 0.25974 0.069095
v  -2 3.37784 0.069095
v  -2 3.4111 0.093627
v  -2 3.48161 0.086698
v  -2 3.54032 0.154061
v  -2 3.60516 0.154061
v  -2 3.63758 0.131727
v  -2 3.63758 -0.012447
v  -1.79124 1.95261 0.122239
v  -2 1.95261 0.122239
v  -1.81845 1.92631 0.08567
v  -1.79124 2.01745 0.122239
v  -2 1.92631 0.08567
v  -2 2.01745 0.122239
v  -2 1.85581 0.0926
v  -1.81139 1.85581 0.0926
v  -1.83617 1.82254 0.068067
v  -2 1.82254 0.068067
v  -1.81845 2.04374 0.08567
v  -2 2.04374 0.08567
v  -1.81139 2.11425 0.0926
v  -2 2.11425 0.0926
v  -1.83617 2.14752 0.068067
v  -2 2.14752 0.068067
v  -1.73875 1.95261 -0.013475
v  -1.77275 1.92631 -0.013475
v  -1.73875 2.01745 -0.013475
v  -1.77275 2.04374 -0.013475
v  -1.76392 2.11425 -0.013475
v  -1.79489 2.14752 -0.013475
v  -1.76392 1.85581 -0.013475
v  -1.79489 1.82254 -0.013475

# 211 UV coordinates
vt 0.003817 0.003817 0
vt 0.444486 0.003817 0
vt 0.003817 0.01453 0
vt 0.444486 0.01453 0
vt 0.003817 0.027549 0
vt 0.444486 0.027549 0
vt 0.003817 0.423801 0
vt 0.003817 0.030509 0
vt 0.444486 0.423801 0
vt 0.444486 0.030509 0
vt 0.003817 0.426361 0
vt 0.444486 0.426361 0
vt 0.003817 0.458107 0
vt 0.444486 0.458107 0
vt 0.003817 0.46235 0
vt 0.003817 0.452895 0
vt 0.444486 0.452895 0
vt 0.444486 0.46235 0
vt 0.003817 0.467445 0
vt 0.444486 0.467445 0
vt 0.003817 0.489602 0
vt 0.444486 0.489602 0
vt 0.444486 0.442052 0
vt 0.003817 0.442052 0
vt 0.444486 0.432585 0
vt 0.003817 0.432585 0
vt 0.97911 0.748921 0
vt 0.979102 0.387392 0
vt 0.989722 0.74892 0
vt 0.98968 0.387391 0
vt 0.94076 0.748918 0
vt 0.940825 0.387388 0
vt 0.930144 0.748914 0
vt 0.93025 0.387386 0
vt 0.840691 0.835321 0
vt 0.840679 0.752746 0
vt 0.847603 0.836551 0
vt 0.84759 0.751514 0
vt 0.860447 0.836022 0
vt 0.860439 0.752039 0
vt 0.902098 0.82308 0
vt 0.902093 0.764966 0
vt 0.842876 0.734667 0
vt 0.850651 0.732451 0
vt 0.867287 0.734581 0
vt 0.907408 0.749593 0
vt 0.842894 0.853397 0
vt 0.850669 0.855612 0
vt 0.867307 0.853477 0
vt 0.907421 0.838453 0
vt 0.24794 0.836213 0
vt 0.16597 0.836174 0
vt 0.249092 0.829713 0
vt 0.164827 0.829672 0
vt 0.165464 0.817514 0
vt 0.248475 0.81755 0
vt 0.174071 0.800267 0
vt 0.239891 0.800297 0
vt 0.175741 0.784641 0
vt 0.238238 0.784667 0
vt 0.236251 0.777107 0
vt 0.177734 0.777082 0
vt 0.136986 0.830028 0
vt 0.136333 0.821893 0
vt 0.13953 0.804724 0
vt 0.155934 0.791814 0
vt 0.157992 0.779569 0
vt 0.1619 0.772593 0
vt 0.276934 0.83011 0
vt 0.277599 0.821978 0
vt 0.274428 0.804802 0
vt 0.258035 0.791865 0
vt 0.255992 0.779618 0
vt 0.252093 0.772637 0
vt 0.15743 0.861212 0
vt 0.256453 0.86126 0
vt 0.871878 0.627338 0
vt 0.871879 0.698475 0
vt 0.864113 0.630053 0
vt 0.884693 0.698474 0
vt 0.884693 0.627337 0
vt 0.864113 0.695762 0
vt 0.848977 0.631457 0
vt 0.848977 0.694357 0
vt 0.841446 0.633248 0
vt 0.841446 0.692566 0
vt 0.892455 0.695762 0
vt 0.892455 0.630051 0
vt 0.907591 0.694357 0
vt 0.907591 0.631456 0
vt 0.915124 0.692563 0
vt 0.915122 0.633246 0
vt 0.867453 0.603556 0
vt 0.85994 0.610514 0
vt 0.889113 0.603555 0
vt 0.896629 0.610511 0
vt 0.910826 0.61312 0
vt 0.918222 0.616691 0
vt 0.845741 0.613122 0
vt 0.838344 0.616694 0
vt 0.867454 0.722259 0
vt 0.859941 0.7153 0
vt 0.889117 0.722259 0
vt 0.845743 0.712693 0
vt 0.838345 0.709123 0
vt 0.89663 0.7153 0
vt 0.910827 0.712692 0
vt 0.918223 0.709121 0
vt 0.916427 0.37023 0
vt 0.916427 0.0087 0
vt 0.927002 0.370232 0
vt 0.927002 0.008703 0
vt 0.918433 0.8628 0
vt 0.925346 0.864029 0
vt 0.920638 0.880876 0
vt 0.928412 0.883091 0
vt 0.938192 0.863499 0
vt 0.945049 0.880955 0
vt 0.979842 0.850557 0
vt 0.985161 0.865932 0
vt 0.10116 0.726864 0
vt 0.100505 0.718729 0
vt 0.130146 0.733003 0
vt 0.129002 0.726502 0
vt 0.103698 0.701557 0
vt 0.129635 0.71434 0
vt 0.120101 0.688643 0
vt 0.138239 0.697093 0
vt 0.122157 0.6764 0
vt 0.139908 0.681464 0
vt 0.126064 0.669424 0
vt 0.141901 0.673907 0
vt 0.121609 0.758041 0
vt 0.17112 0.758061 0
vt 0.171131 0.73302 0
vt 0.171133 0.726519 0
vt 0.17114 0.714357 0
vt 0.171149 0.697107 0
vt 0.171156 0.681477 0
vt 0.171159 0.673919 0
vt 0.946142 0.370234 0
vt 0.946142 0.008705 0
vt 0.938187 0.821507 0
vt 0.979838 0.8215 0
vt 0.925339 0.82151 0
vt 0.918427 0.821512 0
vt 0.299889 0.76585 0
vt 0.295465 0.789634 0
vt 0.292129 0.763137 0
vt 0.31269 0.765851 0
vt 0.287955 0.782675 0
vt 0.317111 0.789635 0
vt 0.277003 0.761731 0
vt 0.273761 0.780064 0
vt 0.266364 0.776493 0
vt 0.269474 0.759938 0
vt 0.320445 0.763138 0
vt 0.324618 0.782677 0
vt 0.335565 0.761733 0
vt 0.338807 0.780067 0
vt 0.346202 0.776495 0
vt 0.343095 0.759939 0
vt 0.335565 0.730282 0
vt 0.343095 0.730282 0
vt 0.320445 0.730283 0
vt 0.31269 0.730283 0
vt 0.299889 0.730282 0
vt 0.292129 0.730282 0
vt 0.277003 0.730282 0
vt 0.269474 0.730281 0
vt 0.965281 0.370236 0
vt 0.965281 0.008707 0
vt 0.975893 0.370235 0
vt 0.975893 0.008706 0
vt 0.918421 0.780225 0
vt 0.920615 0.762146 0
vt 0.925332 0.778992 0
vt 0.928391 0.759928 0
vt 0.945028 0.762057 0
vt 0.938181 0.779516 0
vt 0.979835 0.792444 0
vt 0.98515 0.777069 0
vt 0.241109 0.726931 0
vt 0.212117 0.733038 0
vt 0.241773 0.718797 0
vt 0.213264 0.726536 0
vt 0.238596 0.701621 0
vt 0.212645 0.714375 0
vt 0.222202 0.688688 0
vt 0.204059 0.697121 0
vt 0.220158 0.67644 0
vt 0.202404 0.681491 0
vt 0.216258 0.669462 0
vt 0.200417 0.673932 0
vt 0.220631 0.758081 0
vt 0.299889 0.694713 0
vt 0.292129 0.697426 0
vt 0.31269 0.694715 0
vt 0.277003 0.698832 0
vt 0.269474 0.700624 0
vt 0.320445 0.697428 0
vt 0.335565 0.698832 0
vt 0.343095 0.700626 0
vt 0.295465 0.670931 0
vt 0.287956 0.677888 0
vt 0.317111 0.670931 0
vt 0.324618 0.677889 0
vt 0.338808 0.680498 0
vt 0.346203 0.684072 0
vt 0.273761 0.680497 0
vt 0.266364 0.68407 0

# 120 vertex normals
vn 0 0 1
vn 0 0.492948 0.870059
vn 0 -1 0
vn 0 -0.386069 0.92247
vn 0 0.385919 0.922533
vn 0 -0.896687 0.442665
vn 0 0.925215 0.379443
vn 0 1 0
vn 0 -0.903766 0.428027
vn 0 -0.532902 0.846177
vn 0 -0.294377 0.95569
vn 0.892323 0 0.451398
vn -0.892326 0 0.451393
vn 0 -0.567356 0.823472
vn 0 -0.297092 0.954849
vn 0 0.277392 0.960757
vn 0 0.533013 0.846107
vn 0.63454 -0.640693 0.432286
vn 0.78703 -0.340779 0.514251
vn 0.806727 0.33072 0.489709
vn 0.677267 0.624115 0.389602
vn -0.634561 -0.640681 0.432274
vn -0.787048 -0.340772 0.514227
vn -0.806744 0.330714 0.489685
vn -0.677284 0.624104 0.389589
vn 0 0.567347 0.823479
vn 0 0.297087 0.95485
vn 0 -0.414096 0.910233
vn 0 -0.369038 0.929414
vn 0 -0.265503 0.96411
vn 0 -0.593503 0.804832
vn -0.71226 0.646281 0.273873
vn -0.877859 0.344168 0.333034
vn -0.828229 -0.459666 0.320537
vn -0.838142 -0.404633 0.365775
vn -0.864804 -0.304405 0.399314
vn -0.667183 -0.674844 0.31536
vn 0.712253 0.646289 0.273872
vn 0.877857 0.344173 0.333034
vn 0.828224 -0.459676 0.320535
vn 0.83815 -0.40461 0.365781
vn 0.864806 -0.304389 0.399322
vn 0.667158 -0.674871 0.315355
vn 0 1 2e-06
vn 0 -0.45617 0.889893
vn 0 -0.412048 0.911162
vn 0 0.456168 0.889893
vn 0 -0.276095 0.96113
vn 0 -0.611085 0.791565
vn 0 0.412046 0.911163
vn 0 0.276087 0.961133
vn 0 0.611071 0.791576
vn 0.832077 -0.447782 0.327321
vn 0.843704 -0.392523 0.366181
vn 0.832078 0.447781 0.327321
vn 0.866221 -0.30585 0.395116
vn 0.843705 0.392521 0.366181
vn 0.866223 0.305842 0.395118
vn 0.666658 0.676835 0.312188
vn 0.666649 -0.676847 0.312182
vn -0.832076 -0.447799 0.327301
vn -0.843705 -0.392519 0.366183
vn -0.832076 0.447798 0.327301
vn -0.866218 -0.305845 0.395126
vn -0.666623 -0.676873 0.312181
vn -0.843706 0.392517 0.366183
vn -0.866221 0.305837 0.395127
vn -0.666633 0.676861 0.312186
vn -0.892328 0 0.451387
vn -0.634561 -0.640679 0.432277
vn -0.787047 -0.340771 0.51423
vn -0.806742 0.330718 0.489687
vn -0.677279 0.62411 0.389588
vn -0.712236 0.646313 0.273861
vn -0.877852 0.344188 0.333033
vn -0.828224 -0.459673 0.320541
vn -0.838142 -0.404628 0.365778
vn -0.864805 -0.304402 0.399315
vn -0.667171 -0.67486 0.315352
vn 0 0.567344 0.823481
vn 0 0.297085 0.954851
vn 0 -0.414097 0.910233
vn 0 -0.36903 0.929417
vn 0 -0.265506 0.964109
vn 0 -0.593521 0.804819
vn 0 0.277395 0.960756
vn 0 0.533018 0.846104
vn -0.830241 -0.44863 0.330804
vn -0.841465 -0.393193 0.370588
vn -0.830242 0.448629 0.330802
vn -0.864665 -0.3045 0.399542
vn -0.666896 -0.675084 0.315456
vn -0.841466 0.393192 0.370587
vn -0.864667 0.304493 0.399543
vn -0.666906 0.675072 0.315459
vn 0 0.265498 0.964111
vn 0 0.593511 0.804826
vn 0 0.456169 0.889893
vn 0 -0.412047 0.911162
vn 0 -0.593523 0.804817
vn 0.892328 0 0.451387
vn 0.634567 -0.640682 0.432263
vn 0.787053 -0.340773 0.514219
vn 0.806746 0.330716 0.489681
vn 0.677283 0.624108 0.389586
vn 0.712255 0.64629 0.273866
vn 0.877857 0.344174 0.333034
vn 0.828225 -0.459671 0.32054
vn 0.838148 -0.404622 0.365771
vn 0.864813 -0.304392 0.399304
vn 0.667184 -0.674849 0.315347
vn 0 -0.593522 0.804818
vn 0.830244 -0.448619 0.330811
vn 0.841464 -0.39319 0.370595
vn 0.830245 0.448618 0.330811
vn 0.864654 -0.30452 0.399551
vn 0.841464 0.393189 0.370595
vn 0.864656 0.304513 0.399552
vn 0.666885 0.67509 0.315465
vn 0.666875 -0.675102 0.31546

# Mesh 'default02_default0Shape2' with 254 faces
g default02_default0Shape2
usemtl mansionbase02_material
f  1/1/1 2/2/1 3/3/1
f  3/3/1 2/2/1 4/4/1
f  3/3/2 4/4/2 5/5/2
f  5/5/2 4/4/2 6/6/2
f  7/7/1 8/8/1 9/9/1
f  9/9/1 8/8/1 10/10/1
f  7/7/3 9/9/3 11/11/3
f  11/11/3 9/9/3 12/12/3
f  13/13/4 14/14/4 15/15/5
f  16/16/6 17/17/6 13/13/4
f  13/13/4 17/17/6 14/14/4
f  15/15/5 14/14/4 18/18/5
f  15/15/5 18/18/5 19/19/7
f  19/19/7 18/18/5 20/20/7
f  19/19/7 20/20/7 21/21/8
f  21/21/8 20/20/7 22/22/8
f  16/16/6 23/23/9 17/17/6
f  24/24/9 23/23/9 16/16/6
f  24/24/9 25/25/10 23/23/9
f  26/26/10 25/25/10 24/24/9
f  26/26/10 12/12/11 25/25/10
f  11/11/11 12/12/11 26/26/10
f  5/5/8 6/6/8 8/8/8
f  8/8/8 6/6/8 10/10/8
f  27/27/12 28/28/12 29/29/12
f  29/29/12 28/28/12 30/30/12
f  31/31/1 32/32/1 27/27/1
f  27/27/1 32/32/1 28/28/1
f  33/33/13 34/34/13 31/31/13
f  31/31/13 34/34/13 32/32/13
f  35/35/14 36/36/14 37/37/15
f  37/37/15 36/36/14 38/38/15
f  38/38/15 39/39/16 37/37/15
f  40/40/16 39/39/16 38/38/15
f  32/41/17 39/39/16 28/42/17
f  28/42/17 39/39/16 40/40/16
f  36/36/18 41/43/18 38/38/19
f  38/38/19 41/43/18 42/44/19
f  42/44/19 43/45/20 38/38/19
f  38/38/19 43/45/20 40/40/20
f  40/40/20 43/45/20 28/42/21
f  28/42/21 43/45/20 30/46/21
f  35/35/22 37/37/23 44/47/22
f  44/47/22 37/37/23 45/48/23
f  39/39/24 46/49/24 37/37/23
f  37/37/23 46/49/24 45/48/23
f  32/41/25 46/49/24 39/39/24
f  34/50/25 46/49/24 32/41/25
f  47/51/26 48/52/26 49/53/27
f  49/53/27 48/52/26 50/54/27
f  51/55/28 52/56/28 50/54/27
f  50/54/27 52/56/28 49/53/27
f  53/57/29 54/58/29 51/55/28
f  51/55/28 54/58/29 52/56/28
f  55/59/30 56/60/30 53/57/29
f  53/57/29 56/60/30 54/58/29
f  56/60/30 55/59/30 27/61/31
f  27/61/31 55/59/30 31/62/31
f  57/63/32 58/64/33 48/52/32
f  48/52/32 58/64/33 50/54/33
f  58/64/33 59/65/34 50/54/33
f  50/54/33 59/65/34 51/55/34
f  60/66/35 53/57/35 59/65/34
f  59/65/34 53/57/35 51/55/34
f  61/67/36 55/59/36 60/66/35
f  60/66/35 55/59/36 53/57/35
f  61/67/36 33/68/37 55/59/36
f  55/59/36 33/68/37 31/62/37
f  62/69/38 47/51/38 63/70/39
f  63/70/39 47/51/38 49/53/39
f  49/53/39 64/71/40 63/70/39
f  52/56/40 64/71/40 49/53/39
f  65/72/41 64/71/40 54/58/41
f  54/58/41 64/71/40 52/56/40
f  66/73/42 65/72/41 56/60/42
f  56/60/42 65/72/41 54/58/41
f  66/73/42 56/60/42 29/74/43
f  29/74/43 56/60/42 27/61/43
f  57/75/44 48/52/44 62/76/44
f  62/76/44 48/52/44 47/51/44
f  67/77/45 68/78/45 69/79/46
f  68/78/45 67/77/45 70/80/47
f  70/80/47 67/77/45 71/81/47
f  69/79/46 68/78/45 72/82/46
f  72/82/46 73/83/48 69/79/46
f  74/84/48 73/83/48 72/82/46
f  73/83/48 74/84/48 75/85/49
f  75/85/49 74/84/48 76/86/49
f  70/80/47 71/81/47 77/87/50
f  77/87/50 71/81/47 78/88/50
f  78/88/50 79/89/51 77/87/50
f  80/90/51 79/89/51 78/88/50
f  79/89/51 80/90/51 81/91/52
f  81/91/52 80/90/51 82/92/52
f  67/77/53 69/79/54 83/93/53
f  67/77/53 83/93/53 71/81/55
f  83/93/53 69/79/54 84/94/54
f  73/83/56 84/94/54 69/79/54
f  71/81/55 83/93/53 85/95/55
f  71/81/55 85/95/55 78/88/57
f  78/88/57 85/95/55 86/96/57
f  86/96/57 80/90/58 78/88/57
f  87/97/58 80/90/58 86/96/57
f  87/97/58 88/98/59 80/90/58
f  80/90/58 88/98/59 82/92/59
f  89/99/56 84/94/54 73/83/56
f  89/99/56 73/83/56 90/100/60
f  90/100/60 73/83/56 75/85/60
f  68/78/61 91/101/61 72/82/62
f  70/80/63 91/101/61 68/78/61
f  72/82/62 91/101/61 92/102/62
f  93/103/63 91/101/61 70/80/63
f  92/102/62 74/84/64 72/82/62
f  94/104/64 74/84/64 92/102/62
f  94/104/64 95/105/65 74/84/64
f  74/84/64 95/105/65 76/86/65
f  70/80/63 77/87/66 93/103/63
f  93/103/63 77/87/66 96/106/66
f  79/89/67 96/106/66 77/87/66
f  97/107/67 96/106/66 79/89/67
f  97/107/67 79/89/67 98/108/68
f  98/108/68 79/89/67 81/91/68
f  99/109/69 100/110/69 101/111/69
f  101/111/69 100/110/69 102/112/69
f  103/113/70 104/114/71 105/115/70
f  105/115/70 104/114/71 106/116/71
f  107/117/72 108/118/72 104/114/71
f  104/114/71 108/118/72 106/116/71
f  102/119/73 108/118/72 107/117/72
f  100/120/73 108/118/72 102/119/73
f  109/121/74 110/122/75 111/123/74
f  111/123/74 110/122/75 112/124/75
f  110/122/75 113/125/76 112/124/75
f  112/124/75 113/125/76 114/126/76
f  115/127/77 116/128/77 113/125/76
f  113/125/76 116/128/77 114/126/76
f  117/129/78 118/130/78 115/127/77
f  115/127/77 118/130/78 116/128/77
f  117/129/78 99/131/79 118/130/78
f  118/130/78 99/131/79 101/132/79
f  109/133/8 111/123/8 119/134/8
f  119/134/8 111/123/8 120/135/8
f  120/135/80 111/123/80 121/136/81
f  121/136/81 111/123/80 112/124/81
f  112/124/81 114/126/82 121/136/81
f  121/136/81 114/126/82 122/137/82
f  114/126/82 116/128/83 122/137/82
f  122/137/82 116/128/83 123/138/83
f  118/130/84 124/139/84 116/128/83
f  116/128/83 124/139/84 123/138/83
f  101/132/85 124/139/84 118/130/84
f  125/140/85 124/139/84 101/132/85
f  101/111/1 102/112/1 125/141/1
f  125/141/1 102/112/1 126/142/1
f  107/117/86 127/143/86 102/119/87
f  104/114/15 127/143/86 107/117/86
f  102/119/87 127/143/86 126/144/87
f  128/145/15 127/143/86 104/114/15
f  103/113/14 128/145/15 104/114/15
f  129/146/14 128/145/15 103/113/14
f  130/147/88 131/148/88 132/149/89
f  133/150/90 131/148/88 130/147/88
f  132/149/89 131/148/88 134/151/89
f  135/152/90 131/148/88 133/150/90
f  134/151/89 136/153/91 132/149/89
f  137/154/91 136/153/91 134/151/89
f  137/154/91 138/155/92 136/153/91
f  136/153/91 138/155/92 139/156/92
f  133/150/90 140/157/93 135/152/90
f  135/152/90 140/157/93 141/158/93
f  142/159/94 141/158/93 140/157/93
f  143/160/94 141/158/93 142/159/94
f  143/160/94 142/159/94 144/161/95
f  144/161/95 142/159/94 145/162/95
f  142/159/96 146/163/96 145/162/97
f  140/157/50 146/163/96 142/159/96
f  145/162/97 146/163/96 147/164/97
f  148/165/50 146/163/96 140/157/50
f  133/150/98 149/166/98 140/157/50
f  140/157/50 149/166/98 148/165/50
f  133/150/98 130/147/45 149/166/98
f  149/166/98 130/147/45 150/167/45
f  132/149/99 150/167/45 130/147/45
f  151/168/99 150/167/45 132/149/99
f  136/153/84 152/169/84 132/149/99
f  132/149/99 152/169/84 151/168/99
f  139/156/100 152/169/84 136/153/84
f  153/170/100 152/169/84 139/156/100
f  154/171/101 155/172/101 156/173/101
f  156/173/101 155/172/101 157/174/101
f  158/175/102 159/176/102 160/177/103
f  160/177/103 159/176/102 161/178/103
f  161/178/103 162/179/104 160/177/103
f  160/177/103 162/179/104 163/180/104
f  163/180/104 162/179/104 155/181/105
f  155/181/105 162/179/104 157/182/105
f  164/183/106 165/184/106 166/185/107
f  166/185/107 165/184/106 167/186/107
f  167/186/107 168/187/108 166/185/107
f  169/188/108 168/187/108 167/186/107
f  170/189/109 168/187/108 171/190/109
f  171/190/109 168/187/108 169/188/108
f  172/191/110 170/189/109 173/192/110
f  173/192/110 170/189/109 171/190/109
f  172/191/110 173/192/110 156/193/111
f  156/193/111 173/192/110 154/194/111
f  174/146/14 158/175/14 175/145/15
f  175/145/15 158/175/14 160/177/15
f  160/177/15 163/180/86 175/145/15
f  175/145/15 163/180/86 176/143/86
f  163/180/86 155/181/87 176/143/86
f  176/143/86 155/181/87 177/144/87
f  178/141/1 177/142/1 154/171/1
f  154/171/1 177/142/1 155/172/1
f  173/192/84 179/139/84 154/194/112
f  171/190/83 179/139/84 173/192/84
f  154/194/112 179/139/84 178/140/112
f  180/138/83 179/139/84 171/190/83
f  180/138/83 171/190/83 181/137/82
f  181/137/82 171/190/83 169/188/82
f  182/136/27 181/137/82 167/186/27
f  167/186/27 181/137/82 169/188/82
f  183/135/26 182/136/27 165/184/26
f  165/184/26 182/136/27 167/186/27
f  183/135/8 165/184/8 184/134/8
f  184/134/8 165/184/8 164/195/8
f  185/196/45 186/167/45 187/197/99
f  188/198/98 186/167/45 185/196/45
f  187/197/99 186/167/45 189/168/99
f  190/166/98 186/167/45 188/198/98
f  189/168/99 191/169/84 187/197/99
f  187/197/99 191/169/84 192/199/84
f  192/199/84 191/169/84 193/200/100
f  193/200/100 191/169/84 194/170/100
f  188/198/98 195/201/50 190/166/98
f  190/166/98 195/201/50 196/165/50
f  197/202/96 198/163/96 195/201/50
f  195/201/50 198/163/96 196/165/50
f  197/202/96 199/203/97 198/163/96
f  198/163/96 199/203/97 200/164/97
f  185/196/113 187/197/114 201/204/113
f  185/196/113 201/204/113 188/198/115
f  201/204/113 187/197/114 202/205/114
f  192/199/116 202/205/114 187/197/114
f  188/198/115 201/204/113 203/206/115
f  188/198/115 203/206/115 195/201/117
f  195/201/117 203/206/115 204/207/117
f  204/207/117 197/202/118 195/201/117
f  205/208/118 197/202/118 204/207/117
f  205/208/118 206/209/119 197/202/118
f  197/202/118 206/209/119 199/203/119
f  207/210/116 202/205/114 192/199/116
f  207/210/116 192/199/116 208/211/120
f  208/211/120 192/199/116 193/200/120

