# File produced by Open Asset Import Library (http://www.assimp.sf.net)
# (assimp v3.0.1262)

mtllib orb_1_of_6.dae.obj.mtl

# 240 vertex positions
v  0.063346 0.208217 -0.196162
v  -0.020415 0.165021 -0.03095
v  0.095946 0.162734 -0.174575
v  0.095946 0.162734 -0.174575
v  -0.020415 0.165021 -0.03095
v  0.088091 0.124807 -0.165022
v  0.088091 0.124807 -0.165022
v  -0.020415 0.165021 -0.03095
v  0.066685 0.089853 -0.152762
v  0.066685 0.089853 -0.152762
v  -0.020415 0.165021 -0.03095
v  0.068824 0.059216 -0.125301
v  0.068824 0.059216 -0.125301
v  -0.020415 0.165021 -0.03095
v  0.016393 0.034072 -0.111491
v  0.016393 0.034072 -0.111491
v  -0.020415 0.165021 -0.03095
v  0.015606 0.015389 -0.074703
v  0.015606 0.015389 -0.074703
v  -0.020415 0.165021 -0.03095
v  0.037297 0.003884 -0.026567
v  0.037297 0.003884 -0.026567
v  -0.020415 0.165021 -0.03095
v  0.033029 0 0.007112
v  0.095946 0.162734 -0.174575
v  -0.003295 0.162734 -0.195749
v  0.063346 0.208217 -0.196162
v  0.063346 0.208217 -0.196162
v  -0.003295 0.162734 -0.195749
v  0.010574 0.214967 -0.194673
v  0.010574 0.214967 -0.194673
v  -0.003295 0.162734 -0.195749
v  -0.080336 0.218729 -0.182213
v  -0.080336 0.218729 -0.182213
v  -0.003295 0.162734 -0.195749
v  -0.078755 0.162734 -0.178664
v  -0.080336 0.218729 -0.182213
v  -0.078755 0.162734 -0.178664
v  -0.144752 0.171891 -0.136676
v  -0.144752 0.171891 -0.136676
v  -0.078755 0.162734 -0.178664
v  -0.141933 0.162734 -0.134002
v  -0.141933 0.162734 -0.134002
v  -0.180614 0.162734 -0.075879
v  -0.144752 0.171891 -0.136676
v  -0.144752 0.171891 -0.136676
v  -0.180614 0.162734 -0.075879
v  -0.184221 0.195761 -0.077327
v  0.095946 0.162734 -0.174575
v  0.088091 0.124807 -0.165022
v  -0.003295 0.162734 -0.195749
v  -0.003295 0.162734 -0.195749
v  0.088091 0.124807 -0.165022
v  -0.002993 0.124807 -0.184248
v  -0.003295 0.162734 -0.195749
v  -0.002993 0.124807 -0.184248
v  -0.078755 0.162734 -0.178664
v  -0.078755 0.162734 -0.178664
v  -0.002993 0.124807 -0.184248
v  -0.074074 0.124807 -0.168154
v  -0.078755 0.162734 -0.178664
v  -0.074074 0.124807 -0.168154
v  -0.141933 0.162734 -0.134002
v  -0.141933 0.162734 -0.134002
v  -0.074074 0.124807 -0.168154
v  -0.133587 0.124807 -0.126084
v  -0.141933 0.162734 -0.134002
v  -0.133587 0.124807 -0.126084
v  -0.180614 0.162734 -0.075879
v  -0.180614 0.162734 -0.075879
v  -0.133587 0.124807 -0.126084
v  -0.172829 0.124807 -0.063817
v  0.088091 0.124807 -0.165022
v  0.066685 0.089853 -0.152762
v  -0.002993 0.124807 -0.184248
v  -0.002993 0.124807 -0.184248
v  0.066685 0.089853 -0.152762
v  -0.002501 0.089853 -0.165572
v  -0.002993 0.124807 -0.184248
v  -0.002501 0.089853 -0.165572
v  -0.074074 0.124807 -0.168154
v  -0.074074 0.124807 -0.168154
v  -0.002501 0.089853 -0.165572
v  -0.066473 0.089853 -0.151088
v  -0.074074 0.124807 -0.168154
v  -0.066473 0.089853 -0.151088
v  -0.133587 0.124807 -0.126084
v  -0.133587 0.124807 -0.126084
v  -0.066473 0.089853 -0.151088
v  -0.120033 0.089853 -0.113225
v  -0.120033 0.089853 -0.113225
v  -0.152181 0.089853 -0.066153
v  -0.133587 0.124807 -0.126084
v  -0.133587 0.124807 -0.126084
v  -0.152181 0.089853 -0.066153
v  -0.172829 0.124807 -0.063817
v  0.068824 0.059216 -0.125301
v  -0.00184 0.059216 -0.140437
v  0.066685 0.089853 -0.152762
v  0.066685 0.089853 -0.152762
v  -0.00184 0.059216 -0.140437
v  -0.002501 0.089853 -0.165572
v  -0.002501 0.089853 -0.165572
v  -0.00184 0.059216 -0.140437
v  -0.066473 0.089853 -0.151088
v  -0.066473 0.089853 -0.151088
v  -0.00184 0.059216 -0.140437
v  -0.056243 0.059216 -0.128119
v  -0.066473 0.089853 -0.151088
v  -0.056243 0.059216 -0.128119
v  -0.120033 0.089853 -0.113225
v  -0.120033 0.089853 -0.113225
v  -0.056243 0.059216 -0.128119
v  -0.101792 0.059216 -0.09592
v  -0.101792 0.059216 -0.09592
v  -0.123762 0.059216 -0.070687
v  -0.120033 0.089853 -0.113225
v  -0.120033 0.089853 -0.113225
v  -0.123762 0.059216 -0.070687
v  -0.152181 0.089853 -0.066153
v  0.068824 0.059216 -0.125301
v  0.016393 0.034072 -0.111491
v  -0.00184 0.059216 -0.140437
v  -0.00184 0.059216 -0.140437
v  0.016393 0.034072 -0.111491
v  -0.001034 0.034073 -0.10981
v  -0.00184 0.059216 -0.140437
v  -0.001034 0.034073 -0.10981
v  -0.056243 0.059216 -0.128119
v  -0.056243 0.059216 -0.128119
v  -0.001034 0.034073 -0.10981
v  -0.043778 0.034072 -0.100132
v  -0.056243 0.059216 -0.128119
v  -0.043778 0.034072 -0.100132
v  -0.101792 0.059216 -0.09592
v  -0.101792 0.059216 -0.09592
v  -0.043778 0.034072 -0.100132
v  -0.079566 0.034072 -0.074833
v  -0.101792 0.059216 -0.09592
v  -0.079566 0.034072 -0.074833
v  -0.123762 0.059216 -0.070687
v  -0.123762 0.059216 -0.070687
v  -0.079566 0.034072 -0.074833
v  -0.11862 0.034072 0.004723
v  0.016393 0.034072 -0.111491
v  0.015606 0.015389 -0.074703
v  -0.001034 0.034073 -0.10981
v  -0.001034 0.034073 -0.10981
v  0.015606 0.015389 -0.074703
v  -0.000114 0.015389 -0.074868
v  -0.001034 0.034073 -0.10981
v  -0.000114 0.015389 -0.074868
v  -0.043778 0.034072 -0.100132
v  -0.043778 0.034072 -0.100132
v  -0.000114 0.015389 -0.074868
v  -0.029557 0.015389 -0.068202
v  -0.043778 0.034072 -0.100132
v  -0.029557 0.015389 -0.068202
v  -0.079566 0.034072 -0.074833
v  -0.079566 0.034072 -0.074833
v  -0.029557 0.015389 -0.068202
v  -0.054208 0.015389 -0.050776
v  -0.054208 0.015389 -0.050776
v  -0.081133 0.015389 0.003971
v  -0.079566 0.034072 -0.074833
v  -0.079566 0.034072 -0.074833
v  -0.081133 0.015389 0.003971
v  -0.11862 0.034072 0.004723
v  0.037297 0.003884 -0.026567
v  0.000882 0.003884 -0.036954
v  0.015606 0.015389 -0.074703
v  0.015606 0.015389 -0.074703
v  0.000882 0.003884 -0.036954
v  -0.000114 0.015389 -0.074868
v  -0.000114 0.015389 -0.074868
v  0.000882 0.003884 -0.036954
v  -0.029557 0.015389 -0.068202
v  -0.029557 0.015389 -0.068202
v  0.000882 0.003884 -0.036954
v  -0.014126 0.003884 -0.033556
v  -0.029557 0.015389 -0.068202
v  -0.014126 0.003884 -0.033556
v  -0.054208 0.015389 -0.050776
v  -0.054208 0.015389 -0.050776
v  -0.014126 0.003884 -0.033556
v  -0.026693 0.003884 -0.024672
v  -0.054208 0.015389 -0.050776
v  -0.026693 0.003884 -0.024672
v  -0.081133 0.015389 0.003971
v  -0.081133 0.015389 0.003971
v  -0.026693 0.003884 -0.024672
v  -0.046381 0.003884 0.01941
v  0.037297 0.003884 -0.026567
v  0.033029 0 0.007112
v  0.000882 0.003884 -0.036954
v  0.000882 0.003884 -0.036954
v  0.033029 0 0.007112
v  -0.014126 0.003884 -0.033556
v  -0.014126 0.003884 -0.033556
v  0.033029 0 0.007112
v  -0.026693 0.003884 -0.024672
v  -0.026693 0.003884 -0.024672
v  0.033029 0 0.007112
v  -0.046381 0.003884 0.01941
v  -0.184221 0.195761 -0.077327
v  -0.180614 0.162734 -0.075879
v  -0.020415 0.165021 -0.03095
v  -0.180614 0.162734 -0.075879
v  -0.172829 0.124807 -0.063817
v  -0.020415 0.165021 -0.03095
v  -0.172829 0.124807 -0.063817
v  -0.152181 0.089853 -0.066153
v  -0.020415 0.165021 -0.03095
v  -0.152181 0.089853 -0.066153
v  -0.123762 0.059216 -0.070687
v  -0.020415 0.165021 -0.03095
v  -0.123762 0.059216 -0.070687
v  -0.11862 0.034072 0.004723
v  -0.020415 0.165021 -0.03095
v  -0.11862 0.034072 0.004723
v  -0.081133 0.015389 0.003971
v  -0.020415 0.165021 -0.03095
v  -0.081133 0.015389 0.003971
v  -0.046381 0.003884 0.01941
v  -0.020415 0.165021 -0.03095
v  -0.046381 0.003884 0.01941
v  0.033029 0 0.007112
v  -0.020415 0.165021 -0.03095
v  0.010574 0.214967 -0.194673
v  -0.080336 0.218729 -0.182213
v  -0.020415 0.165021 -0.03095
v  -0.080336 0.218729 -0.182213
v  -0.144752 0.171891 -0.136676
v  -0.020415 0.165021 -0.03095
v  -0.144752 0.171891 -0.136676
v  -0.184221 0.195761 -0.077327
v  -0.020415 0.165021 -0.03095
v  0.063346 0.208217 -0.196162
v  0.010574 0.214967 -0.194673
v  -0.020415 0.165021 -0.03095

# 240 UV coordinates
vt 0.896447 0.021474 0
vt 0.678304 0.274838 0
vt 0.794379 0.021474 0
vt 0.794379 0.021474 0
vt 0.678304 0.274838 0
vt 0.736177 0.021474 0
vt 0.736177 0.021474 0
vt 0.678304 0.274838 0
vt 0.727326 0.021474 0
vt 0.727326 0.021474 0
vt 0.678304 0.274838 0
vt 0.668893 0.022582 0
vt 0.668893 0.022582 0
vt 0.678304 0.274838 0
vt 0.610922 0.021474 0
vt 0.610922 0.021474 0
vt 0.678304 0.274838 0
vt 0.55272 0.021474 0
vt 0.55272 0.021474 0
vt 0.678304 0.274838 0
vt 0.497744 0.021474 0
vt 0.497744 0.021474 0
vt 0.678304 0.274838 0
vt 0.455721 0.116731 0
vt 0.405332 0.681936 0
vt 0.45049 0.681936 0
vt 0.405332 0.636777 0
vt 0.405332 0.636777 0
vt 0.45049 0.681936 0
vt 0.45049 0.636777 0
vt 0.45049 0.636777 0
vt 0.45049 0.681936 0
vt 0.495648 0.636777 0
vt 0.495648 0.636777 0
vt 0.45049 0.681936 0
vt 0.495648 0.681936 0
vt 0.495648 0.636777 0
vt 0.495648 0.681936 0
vt 0.540807 0.636777 0
vt 0.540807 0.636777 0
vt 0.495648 0.681936 0
vt 0.540807 0.681936 0
vt 0.540807 0.681936 0
vt 0.585965 0.681936 0
vt 0.540807 0.636777 0
vt 0.540807 0.636777 0
vt 0.585965 0.681936 0
vt 0.585965 0.636777 0
vt 0.405332 0.681936 0
vt 0.405332 0.727094 0
vt 0.45049 0.681936 0
vt 0.45049 0.681936 0
vt 0.405332 0.727094 0
vt 0.45049 0.727094 0
vt 0.45049 0.681936 0
vt 0.45049 0.727094 0
vt 0.495648 0.681936 0
vt 0.495648 0.681936 0
vt 0.45049 0.727094 0
vt 0.495648 0.727094 0
vt 0.495648 0.681936 0
vt 0.495648 0.727094 0
vt 0.540807 0.681936 0
vt 0.540807 0.681936 0
vt 0.495648 0.727094 0
vt 0.540807 0.727094 0
vt 0.540807 0.681936 0
vt 0.540807 0.727094 0
vt 0.585965 0.681936 0
vt 0.585965 0.681936 0
vt 0.540807 0.727094 0
vt 0.585965 0.727094 0
vt 0.405332 0.727094 0
vt 0.405332 0.772252 0
vt 0.45049 0.727094 0
vt 0.45049 0.727094 0
vt 0.405332 0.772252 0
vt 0.45049 0.772252 0
vt 0.45049 0.727094 0
vt 0.45049 0.772252 0
vt 0.495648 0.727094 0
vt 0.495648 0.727094 0
vt 0.45049 0.772252 0
vt 0.495648 0.772252 0
vt 0.495648 0.727094 0
vt 0.495648 0.772252 0
vt 0.540807 0.727094 0
vt 0.540807 0.727094 0
vt 0.495648 0.772252 0
vt 0.540807 0.772252 0
vt 0.540807 0.772252 0
vt 0.585965 0.772252 0
vt 0.540807 0.727094 0
vt 0.540807 0.727094 0
vt 0.585965 0.772252 0
vt 0.585965 0.727094 0
vt 0.405332 0.817411 0
vt 0.45049 0.817411 0
vt 0.405332 0.772252 0
vt 0.405332 0.772252 0
vt 0.45049 0.817411 0
vt 0.45049 0.772252 0
vt 0.45049 0.772252 0
vt 0.45049 0.817411 0
vt 0.495648 0.772252 0
vt 0.495648 0.772252 0
vt 0.45049 0.817411 0
vt 0.495648 0.817411 0
vt 0.495648 0.772252 0
vt 0.495648 0.817411 0
vt 0.540807 0.772252 0
vt 0.540807 0.772252 0
vt 0.495648 0.817411 0
vt 0.540807 0.817411 0
vt 0.540807 0.817411 0
vt 0.585965 0.817411 0
vt 0.540807 0.772252 0
vt 0.540807 0.772252 0
vt 0.585965 0.817411 0
vt 0.585965 0.772252 0
vt 0.405332 0.817411 0
vt 0.405332 0.862569 0
vt 0.45049 0.817411 0
vt 0.45049 0.817411 0
vt 0.405332 0.862569 0
vt 0.45049 0.862569 0
vt 0.45049 0.817411 0
vt 0.45049 0.862569 0
vt 0.495648 0.817411 0
vt 0.495648 0.817411 0
vt 0.45049 0.862569 0
vt 0.495648 0.862569 0
vt 0.495648 0.817411 0
vt 0.495648 0.862569 0
vt 0.540807 0.817411 0
vt 0.540807 0.817411 0
vt 0.495648 0.862569 0
vt 0.540807 0.862569 0
vt 0.540807 0.817411 0
vt 0.540807 0.862569 0
vt 0.585965 0.817411 0
vt 0.585965 0.817411 0
vt 0.540807 0.862569 0
vt 0.585965 0.862569 0
vt 0.405332 0.862569 0
vt 0.405332 0.907727 0
vt 0.45049 0.862569 0
vt 0.45049 0.862569 0
vt 0.405332 0.907727 0
vt 0.45049 0.907727 0
vt 0.45049 0.862569 0
vt 0.45049 0.907727 0
vt 0.495648 0.862569 0
vt 0.495648 0.862569 0
vt 0.45049 0.907727 0
vt 0.495648 0.907727 0
vt 0.495648 0.862569 0
vt 0.495648 0.907727 0
vt 0.540807 0.862569 0
vt 0.540807 0.862569 0
vt 0.495648 0.907727 0
vt 0.540807 0.907727 0
vt 0.540807 0.907727 0
vt 0.585965 0.907727 0
vt 0.540807 0.862569 0
vt 0.540807 0.862569 0
vt 0.585965 0.907727 0
vt 0.585965 0.862569 0
vt 0.405332 0.952886 0
vt 0.45049 0.952886 0
vt 0.405332 0.907727 0
vt 0.405332 0.907727 0
vt 0.45049 0.952886 0
vt 0.45049 0.907727 0
vt 0.45049 0.907727 0
vt 0.45049 0.952886 0
vt 0.495648 0.907727 0
vt 0.495648 0.907727 0
vt 0.45049 0.952886 0
vt 0.495648 0.952886 0
vt 0.495648 0.907727 0
vt 0.495648 0.952886 0
vt 0.540807 0.907727 0
vt 0.540807 0.907727 0
vt 0.495648 0.952886 0
vt 0.540807 0.952886 0
vt 0.540807 0.907727 0
vt 0.540807 0.952886 0
vt 0.585965 0.907727 0
vt 0.585965 0.907727 0
vt 0.540807 0.952886 0
vt 0.585965 0.952886 0
vt 0.405332 0.952886 0
vt 0.427911 0.994612 0
vt 0.45049 0.952886 0
vt 0.45049 0.952886 0
vt 0.473069 0.994612 0
vt 0.495648 0.952886 0
vt 0.495648 0.952886 0
vt 0.518227 0.994612 0
vt 0.540807 0.952886 0
vt 0.540807 0.952886 0
vt 0.563386 0.994612 0
vt 0.585965 0.952886 0
vt 0.896447 0.021474 0
vt 0.794379 0.021474 0
vt 0.678304 0.274838 0
vt 0.794379 0.021474 0
vt 0.736177 0.021474 0
vt 0.678304 0.274838 0
vt 0.736177 0.021474 0
vt 0.727326 0.021474 0
vt 0.678304 0.274838 0
vt 0.727326 0.021474 0
vt 0.668893 0.022582 0
vt 0.678304 0.274838 0
vt 0.668893 0.022582 0
vt 0.610922 0.021474 0
vt 0.678304 0.274838 0
vt 0.610922 0.021474 0
vt 0.55272 0.021474 0
vt 0.678304 0.274838 0
vt 0.55272 0.021474 0
vt 0.497744 0.021474 0
vt 0.678304 0.274838 0
vt 0.497744 0.021474 0
vt 0.455721 0.116731 0
vt 0.678304 0.274838 0
vt 0.359569 0.785722 0
vt 0.288444 0.892168 0
vt 0.060775 0.660161 0
vt 0.288444 0.892168 0
vt 0.185233 0.963293 0
vt 0.060775 0.660161 0
vt 0.185233 0.963293 0
vt 0.060775 0.988268 0
vt 0.060775 0.660161 0
vt 0.38778 0.660161 0
vt 0.359569 0.785722 0
vt 0.060775 0.660161 0

# 240 vertex normals
vn 0.595158 0.650514 0.471824
vn 0.889119 0.18411 0.419012
vn 0.731783 0.345679 0.587367
vn 0.731783 0.345679 0.587367
vn 0.889119 0.18411 0.419012
vn 0.756264 -0.109794 0.644988
vn 0.756264 -0.109794 0.644988
vn 0.889119 0.18411 0.419012
vn 0.835794 0.091061 0.541439
vn 0.835794 0.091061 0.541439
vn 0.889119 0.18411 0.419012
vn 0.724534 -0.003515 0.68923
vn 0.724534 -0.003515 0.68923
vn 0.889119 0.18411 0.419012
vn 0.818802 -0.115688 0.562299
vn 0.818802 -0.115688 0.562299
vn 0.889119 0.18411 0.419012
vn 0.959241 0.261933 -0.106057
vn 0.959241 0.261933 -0.106057
vn 0.889119 0.18411 0.419012
vn 0.93852 0.33374 -0.088301
vn 0.93852 0.33374 -0.088301
vn 0.889119 0.18411 0.419012
vn 0.928476 0.336802 0.156512
vn 0.159161 -0.231843 -0.959644
vn -0.017642 -0.192041 -0.981228
vn 0.118315 -0.182206 -0.976116
vn 0.118315 -0.182206 -0.976116
vn -0.017642 -0.192041 -0.981228
vn -0.028725 -0.093817 -0.995175
vn -0.028725 -0.093817 -0.995175
vn -0.017642 -0.192041 -0.981228
vn -0.367795 -0.060696 -0.927924
vn -0.367795 -0.060696 -0.927924
vn -0.017642 -0.192041 -0.981228
vn -0.38127 -0.176984 -0.907364
vn -0.367795 -0.060696 -0.927924
vn -0.38127 -0.176984 -0.907364
vn -0.706635 -0.150607 -0.691365
vn -0.706635 -0.150607 -0.691365
vn -0.38127 -0.176984 -0.907364
vn -0.699172 -0.226571 -0.678103
vn -0.699172 -0.226571 -0.678103
vn -0.819198 -0.242667 -0.519641
vn -0.706635 -0.150607 -0.691365
vn -0.706635 -0.150607 -0.691365
vn -0.819198 -0.242667 -0.519641
vn -0.835586 -0.178056 -0.519703
vn 0.159161 -0.231843 -0.959644
vn 0.188277 -0.362541 -0.912752
vn -0.017642 -0.192041 -0.981228
vn -0.017642 -0.192041 -0.981228
vn 0.188277 -0.362541 -0.912752
vn -0.008219 -0.376872 -0.926229
vn -0.017642 -0.192041 -0.981228
vn -0.008219 -0.376872 -0.926229
vn -0.38127 -0.176984 -0.907364
vn -0.38127 -0.176984 -0.907364
vn -0.008219 -0.376872 -0.926229
vn -0.375864 -0.382803 -0.843912
vn -0.38127 -0.176984 -0.907364
vn -0.375864 -0.382803 -0.843912
vn -0.699172 -0.226571 -0.678103
vn -0.699172 -0.226571 -0.678103
vn -0.375864 -0.382803 -0.843912
vn -0.666406 -0.381514 -0.640586
vn -0.699172 -0.226571 -0.678103
vn -0.666406 -0.381514 -0.640586
vn -0.819198 -0.242667 -0.519641
vn -0.819198 -0.242667 -0.519641
vn -0.666406 -0.381514 -0.640586
vn -0.777318 -0.37481 -0.505266
vn 0.188277 -0.362541 -0.912752
vn 0.164348 -0.54472 -0.822356
vn -0.008219 -0.376872 -0.926229
vn -0.008219 -0.376872 -0.926229
vn 0.164348 -0.54472 -0.822356
vn -0.010522 -0.555016 -0.831773
vn -0.008219 -0.376872 -0.926229
vn -0.010522 -0.555016 -0.831773
vn -0.375864 -0.382803 -0.843912
vn -0.375864 -0.382803 -0.843912
vn -0.010522 -0.555016 -0.831773
vn -0.338248 -0.555712 -0.759455
vn -0.375864 -0.382803 -0.843912
vn -0.338248 -0.555712 -0.759455
vn -0.666406 -0.381514 -0.640586
vn -0.666406 -0.381514 -0.640586
vn -0.338248 -0.555712 -0.759455
vn -0.598524 -0.539436 -0.592265
vn -0.598524 -0.539436 -0.592265
vn -0.701259 -0.518917 -0.488836
vn -0.666406 -0.381514 -0.640586
vn -0.666406 -0.381514 -0.640586
vn -0.701259 -0.518917 -0.488836
vn -0.777318 -0.37481 -0.505266
vn 0.128104 -0.67949 -0.722414
vn -0.014676 -0.697151 -0.716774
vn 0.164348 -0.54472 -0.822356
vn 0.164348 -0.54472 -0.822356
vn -0.014676 -0.697151 -0.716774
vn -0.010522 -0.555016 -0.831773
vn -0.010522 -0.555016 -0.831773
vn -0.014676 -0.697151 -0.716774
vn -0.338248 -0.555712 -0.759455
vn -0.338248 -0.555712 -0.759455
vn -0.014676 -0.697151 -0.716774
vn -0.287636 -0.707238 -0.645817
vn -0.338248 -0.555712 -0.759455
vn -0.287636 -0.707238 -0.645817
vn -0.598524 -0.539436 -0.592265
vn -0.598524 -0.539436 -0.592265
vn -0.287636 -0.707238 -0.645817
vn -0.498556 -0.714193 -0.491294
vn -0.498556 -0.714193 -0.491294
vn -0.577776 -0.716534 -0.390838
vn -0.598524 -0.539436 -0.592265
vn -0.598524 -0.539436 -0.592265
vn -0.577776 -0.716534 -0.390838
vn -0.701259 -0.518917 -0.488836
vn 0.128104 -0.67949 -0.722414
vn 0.042586 -0.811681 -0.582546
vn -0.014676 -0.697151 -0.716774
vn -0.014676 -0.697151 -0.716774
vn 0.042586 -0.811681 -0.582546
vn -0.041311 -0.822142 -0.567782
vn -0.014676 -0.697151 -0.716774
vn -0.041311 -0.822142 -0.567782
vn -0.287636 -0.707238 -0.645817
vn -0.287636 -0.707238 -0.645817
vn -0.041311 -0.822142 -0.567782
vn -0.225977 -0.831566 -0.507378
vn -0.287636 -0.707238 -0.645817
vn -0.225977 -0.831566 -0.507378
vn -0.498556 -0.714193 -0.491294
vn -0.498556 -0.714193 -0.491294
vn -0.225977 -0.831566 -0.507378
vn -0.399252 -0.843865 -0.358455
vn -0.498556 -0.714193 -0.491294
vn -0.399252 -0.843865 -0.358455
vn -0.577776 -0.716534 -0.390838
vn -0.577776 -0.716534 -0.390838
vn -0.399252 -0.843865 -0.358455
vn -0.466939 -0.84765 -0.251908
vn 0.042586 -0.811681 -0.582546
vn 0.017016 -0.929333 -0.368851
vn -0.041311 -0.822142 -0.567782
vn -0.041311 -0.822142 -0.567782
vn 0.017016 -0.929333 -0.368851
vn -0.034506 -0.926545 -0.374597
vn -0.041311 -0.822142 -0.567782
vn -0.034506 -0.926545 -0.374597
vn -0.225977 -0.831566 -0.507378
vn -0.225977 -0.831566 -0.507378
vn -0.034506 -0.926545 -0.374597
vn -0.155645 -0.923931 -0.349466
vn -0.225977 -0.831566 -0.507378
vn -0.155645 -0.923931 -0.349466
vn -0.399252 -0.843865 -0.358455
vn -0.399252 -0.843865 -0.358455
vn -0.155645 -0.923931 -0.349466
vn -0.291411 -0.924425 -0.246005
vn -0.291411 -0.924425 -0.246005
vn -0.355546 -0.918693 -0.172018
vn -0.399252 -0.843865 -0.358455
vn -0.399252 -0.843865 -0.358455
vn -0.355546 -0.918693 -0.172018
vn -0.466939 -0.84765 -0.251908
vn 0.043391 -0.980501 -0.191666
vn 0.001045 -0.982268 -0.18748
vn 0.017016 -0.929333 -0.368851
vn 0.017016 -0.929333 -0.368851
vn 0.001045 -0.982268 -0.18748
vn -0.034506 -0.926545 -0.374597
vn -0.034506 -0.926545 -0.374597
vn 0.001045 -0.982268 -0.18748
vn -0.155645 -0.923931 -0.349466
vn -0.155645 -0.923931 -0.349466
vn 0.001045 -0.982268 -0.18748
vn -0.073006 -0.983501 -0.165515
vn -0.155645 -0.923931 -0.349466
vn -0.073006 -0.983501 -0.165515
vn -0.291411 -0.924425 -0.246005
vn -0.291411 -0.924425 -0.246005
vn -0.073006 -0.983501 -0.165515
vn -0.133219 -0.984755 -0.111846
vn -0.291411 -0.924425 -0.246005
vn -0.133219 -0.984755 -0.111846
vn -0.355546 -0.918693 -0.172018
vn -0.355546 -0.918693 -0.172018
vn -0.133219 -0.984755 -0.111846
vn -0.161646 -0.983951 -0.075576
vn 0.043391 -0.980501 -0.191666
vn -0.018776 -0.997674 -0.065524
vn 0.001045 -0.982268 -0.18748
vn 0.001045 -0.982268 -0.18748
vn -0.018776 -0.997674 -0.065524
vn -0.073006 -0.983501 -0.165515
vn -0.073006 -0.983501 -0.165515
vn -0.018776 -0.997674 -0.065524
vn -0.133219 -0.984755 -0.111846
vn -0.133219 -0.984755 -0.111846
vn -0.018776 -0.997674 -0.065524
vn -0.161646 -0.983951 -0.075576
vn -0.270183 0.012702 0.962725
vn -0.269501 0.128393 0.954403
vn -0.218693 0.17336 0.960271
vn -0.269501 0.128393 0.954403
vn -0.220796 0.040381 0.974484
vn -0.218693 0.17336 0.960271
vn -0.220796 0.040381 0.974484
vn -0.140934 -0.206413 0.968262
vn -0.218693 0.17336 0.960271
vn -0.140934 -0.206413 0.968262
vn -0.55557 0.24416 0.794813
vn -0.218693 0.17336 0.960271
vn -0.55557 0.24416 0.794813
vn -0.391147 0.503261 0.77054
vn -0.218693 0.17336 0.960271
vn -0.391147 0.503261 0.77054
vn -0.092187 0.261635 0.960754
vn -0.218693 0.17336 0.960271
vn -0.092187 0.261635 0.960754
vn -0.067062 0.307462 0.949194
vn -0.218693 0.17336 0.960271
vn -0.067062 0.307462 0.949194
vn 0.160241 0.270834 0.949195
vn -0.218693 0.17336 0.960271
vn 0.105158 0.945449 0.30833
vn -0.11994 0.919625 0.374039
vn 0.035678 0.975385 0.217603
vn -0.11994 0.919625 0.374039
vn -0.041796 0.992641 0.113655
vn 0.035678 0.975385 0.217603
vn -0.041796 0.992641 0.113655
vn 0.239891 0.945383 -0.220689
vn 0.035678 0.975385 0.217603
vn 0.129209 0.941375 0.311639
vn 0.105158 0.945449 0.30833
vn 0.035678 0.975385 0.217603

# Mesh 'orb1' with 80 faces
g orb1
usemtl lambert1
f  1/1/1 2/2/2 3/3/3
f  4/4/4 5/5/5 6/6/6
f  7/7/7 8/8/8 9/9/9
f  10/10/10 11/11/11 12/12/12
f  13/13/13 14/14/14 15/15/15
f  16/16/16 17/17/17 18/18/18
f  19/19/19 20/20/20 21/21/21
f  22/22/22 23/23/23 24/24/24
f  25/25/25 26/26/26 27/27/27
f  28/28/28 29/29/29 30/30/30
f  31/31/31 32/32/32 33/33/33
f  34/34/34 35/35/35 36/36/36
f  37/37/37 38/38/38 39/39/39
f  40/40/40 41/41/41 42/42/42
f  43/43/43 44/44/44 45/45/45
f  46/46/46 47/47/47 48/48/48
f  49/49/49 50/50/50 51/51/51
f  52/52/52 53/53/53 54/54/54
f  55/55/55 56/56/56 57/57/57
f  58/58/58 59/59/59 60/60/60
f  61/61/61 62/62/62 63/63/63
f  64/64/64 65/65/65 66/66/66
f  67/67/67 68/68/68 69/69/69
f  70/70/70 71/71/71 72/72/72
f  73/73/73 74/74/74 75/75/75
f  76/76/76 77/77/77 78/78/78
f  79/79/79 80/80/80 81/81/81
f  82/82/82 83/83/83 84/84/84
f  85/85/85 86/86/86 87/87/87
f  88/88/88 89/89/89 90/90/90
f  91/91/91 92/92/92 93/93/93
f  94/94/94 95/95/95 96/96/96
f  97/97/97 98/98/98 99/99/99
f  100/100/100 101/101/101 102/102/102
f  103/103/103 104/104/104 105/105/105
f  106/106/106 107/107/107 108/108/108
f  109/109/109 110/110/110 111/111/111
f  112/112/112 113/113/113 114/114/114
f  115/115/115 116/116/116 117/117/117
f  118/118/118 119/119/119 120/120/120
f  121/121/121 122/122/122 123/123/123
f  124/124/124 125/125/125 126/126/126
f  127/127/127 128/128/128 129/129/129
f  130/130/130 131/131/131 132/132/132
f  133/133/133 134/134/134 135/135/135
f  136/136/136 137/137/137 138/138/138
f  139/139/139 140/140/140 141/141/141
f  142/142/142 143/143/143 144/144/144
f  145/145/145 146/146/146 147/147/147
f  148/148/148 149/149/149 150/150/150
f  151/151/151 152/152/152 153/153/153
f  154/154/154 155/155/155 156/156/156
f  157/157/157 158/158/158 159/159/159
f  160/160/160 161/161/161 162/162/162
f  163/163/163 164/164/164 165/165/165
f  166/166/166 167/167/167 168/168/168
f  169/169/169 170/170/170 171/171/171
f  172/172/172 173/173/173 174/174/174
f  175/175/175 176/176/176 177/177/177
f  178/178/178 179/179/179 180/180/180
f  181/181/181 182/182/182 183/183/183
f  184/184/184 185/185/185 186/186/186
f  187/187/187 188/188/188 189/189/189
f  190/190/190 191/191/191 192/192/192
f  193/193/193 194/194/194 195/195/195
f  196/196/196 197/197/197 198/198/198
f  199/199/199 200/200/200 201/201/201
f  202/202/202 203/203/203 204/204/204
f  205/205/205 206/206/206 207/207/207
f  208/208/208 209/209/209 210/210/210
f  211/211/211 212/212/212 213/213/213
f  214/214/214 215/215/215 216/216/216
f  217/217/217 218/218/218 219/219/219
f  220/220/220 221/221/221 222/222/222
f  223/223/223 224/224/224 225/225/225
f  226/226/226 227/227/227 228/228/228
f  229/229/229 230/230/230 231/231/231
f  232/232/232 233/233/233 234/234/234
f  235/235/235 236/236/236 237/237/237
f  238/238/238 239/239/239 240/240/240

