# File produced by Open Asset Import Library (http://www.assimp.sf.net)
# (assimp v3.0.1262)

mtllib welder_wood.dae.obj.mtl

# 36 vertex positions
v  -0.125 0 0.125
v  0.125 0 0.125
v  -0.125 4 0.125
v  0.125 0 0.125
v  0.125 4 0.125
v  -0.125 4 0.125
v  -0.125 4 0.125
v  0.125 4 0.125
v  -0.125 4 -0.125
v  0.125 4 0.125
v  0.125 4 -0.125
v  -0.125 4 -0.125
v  -0.125 4 -0.125
v  0.125 4 -0.125
v  -0.125 0 -0.125
v  0.125 4 -0.125
v  0.125 0 -0.125
v  -0.125 0 -0.125
v  -0.125 0 -0.125
v  0.125 0 -0.125
v  -0.125 0 0.125
v  0.125 0 -0.125
v  0.125 0 0.125
v  -0.125 0 0.125
v  0.125 0 0.125
v  0.125 0 -0.125
v  0.125 4 0.125
v  0.125 0 -0.125
v  0.125 4 -0.125
v  0.125 4 0.125
v  -0.125 0 -0.125
v  -0.125 0 0.125
v  -0.125 4 -0.125
v  -0.125 0 0.125
v  -0.125 4 0.125
v  -0.125 4 -0.125

# 36 UV coordinates
vt 0.000502 0.700448 0
vt 0.000502 0.672154 0
vt 0.297021 0.700448 0
vt 0.000502 0.672154 0
vt 0.297021 0.672154 0
vt 0.297021 0.700448 0
vt 0.028865 0.700429 0
vt 0.028865 0.672065 0
vt 0.055136 0.700429 0
vt 0.028865 0.672065 0
vt 0.055136 0.672065 0
vt 0.055136 0.700429 0
vt 0.000502 0.700448 0
vt 0.000502 0.672154 0
vt 0.297021 0.700448 0
vt 0.000502 0.672154 0
vt 0.297021 0.672154 0
vt 0.297021 0.700448 0
vt 0.028865 0.672065 0
vt 0.028866 0.644036 0
vt 0.055136 0.672065 0
vt 0.028866 0.644036 0
vt 0.055136 0.644036 0
vt 0.055136 0.672065 0
vt 0.000488 0.672155 0
vt 0.000488 0.644019 0
vt 0.297023 0.672155 0
vt 0.000488 0.644019 0
vt 0.297023 0.644019 0
vt 0.297023 0.672155 0
vt 0.000502 0.672154 0
vt 0.000488 0.644019 0
vt 0.297021 0.672154 0
vt 0.000488 0.644019 0
vt 0.297023 0.644019 0
vt 0.297021 0.672154 0

# 36 vertex normals
vn 0 0 1
vn 0 0 1
vn 0 0 1
vn 0 0 1
vn 0 0 1
vn 0 0 1
vn 0 1 0
vn 0 1 0
vn 0 1 0
vn 0 1 0
vn 0 1 0
vn 0 1 0
vn 0 0 -1
vn 0 0 -1
vn 0 0 -1
vn 0 0 -1
vn 0 0 -1
vn 0 0 -1
vn 0 -1 0
vn 0 -1 0
vn 0 -1 0
vn 0 -1 0
vn 0 -1 0
vn 0 -1 0
vn 1 0 0
vn 1 0 0
vn 1 0 0
vn 1 0 0
vn 1 0 0
vn 1 0 0
vn -1 0 0
vn -1 0 0
vn -1 0 0
vn -1 0 0
vn -1 0 0
vn -1 0 0

# Mesh 'pCube5' with 12 faces
g pCube5
usemtl lambert2
f  1/1/1 2/2/2 3/3/3
f  4/4/4 5/5/5 6/6/6
f  7/7/7 8/8/8 9/9/9
f  10/10/10 11/11/11 12/12/12
f  13/13/13 14/14/14 15/15/15
f  16/16/16 17/17/17 18/18/18
f  19/19/19 20/20/20 21/21/21
f  22/22/22 23/23/23 24/24/24
f  25/25/25 26/26/26 27/27/27
f  28/28/28 29/29/29 30/30/30
f  31/31/31 32/32/32 33/33/33
f  34/34/34 35/35/35 36/36/36

